<?xml version="1.0" encoding="utf-8"?>
<!-- Generator: Adobe Illustrator 18.1.1, SVG Export Plug-In . SVG Version: 6.00 Build 0)  -->
<svg version="1.1" id="Calque_1" xmlns="http://www.w3.org/2000/svg" xmlns:xlink="http://www.w3.org/1999/xlink" x="0px" y="0px"
	 viewBox="0 0 518.1 184.5" enable-background="new 0 0 518.1 184.5" xml:space="preserve">
<image overflow="visible" width="2125" height="938" xlink:href="fondArticle.png"  transform="matrix(0.24 0 0 0.1851 5 4.5)">
</image>
<g>
	<path fill="#80BA27" d="M7.8,97.3c0,0,0.6,1,1.5,2.8c0.9,1.8,2.2,4.4,3.4,7.7c1.2,3.3,2.5,7.1,3.5,11.4c0.5,2.1,1,4.3,1.5,6.6
		c0.4,2.3,0.8,4.6,1.1,6.9c0.3,2.3,0.4,4.6,0.5,7c0.1,2.3-0.1,4.6-0.5,6.8c-0.4,2.2-1.3,4.2-2.2,6c-0.9,1.8-1.9,3.5-2.9,4.9
		c-1,1.4-2,2.7-2.7,3.8c-0.8,1.2-1.4,2.2-1.9,3.1C8,166,7.5,167,7.5,167s0.1-0.3,0.3-0.8c0.2-0.5,0.5-1.3,0.9-2.2
		c0.4-0.9,0.9-2.1,1.6-3.3c0.6-1.3,1.5-2.6,2.4-4.1c0.9-1.5,1.7-3.1,2.5-4.9c0.8-1.8,1.5-3.7,1.8-5.7c0.4-2,0.4-4.2,0.3-6.5
		c-0.1-2.2-0.3-4.5-0.6-6.8c-0.3-2.3-0.6-4.5-1-6.8c-0.4-2.2-0.8-4.4-1.3-6.5c-0.9-4.2-1.9-8.1-2.9-11.4c-1-3.3-1.9-6-2.7-7.9
		C8.2,98.3,7.8,97.3,7.8,97.3z"/>
</g>
<g>
	<path fill="#80BA27" d="M5.3,178.1c0,0-0.1-0.4-0.2-1.2c-0.1-0.8-0.2-2-0.2-3.6c0-0.8,0.1-1.6,0.1-2.6c0.1-1,0.2-2,0.4-3
		c0.4-2.1,1.1-4.5,2.1-7c0.5-1.3,1.2-2.5,1.8-3.8c0.3-0.6,0.7-1.3,1.1-1.9l0.1-0.2l0.1-0.1c0,0,0.1-0.1,0,0l0,0l0-0.1l0.3-0.5
		c0.2-0.3,0.4-0.7,0.5-1c0.5-1.1,1-2.5,1.3-3.8c0.3-1.4,0.6-2.8,0.8-4.3c0.2-1.5,0.2-3,0.3-4.6c0-1.6-0.1-3.2-0.2-4.8
		c-0.3-3.2-0.7-6.5-1.4-9.8c-0.6-3.3-1.4-6.6-2.3-9.8c-0.9-3.2-1.8-6.5-2.7-9.4c-1-3-2-6-2.8-9c-0.8-3-1.3-5.9-1.5-8.6
		c-0.2-2.7-0.1-5.1,0-7.3c0.1-2.2,0.4-4,0.7-5.5c0.3-1.5,0.6-2.7,0.8-3.5C4.9,71.9,5,71.5,5,71.5s0,0.4,0,1.3c0,0.8,0,2,0.1,3.5
		c0.1,1.5,0.2,3.3,0.4,5.4C5.7,83.7,6,86,6.6,88.4c0.5,2.5,1.3,5,2.3,7.7c1,2.7,2.3,5.5,3.5,8.6c0.3,0.8,0.6,1.6,0.9,2.4
		c0.3,0.8,0.6,1.6,0.8,2.4c0.6,1.6,1.1,3.2,1.6,4.9c1,3.3,1.9,6.8,2.5,10.3c0.7,3.5,1.1,7.1,1.3,10.6c0.2,3.6,0,7.1-0.6,10.5
		c-0.3,1.7-0.7,3.4-1.3,5c-0.6,1.6-1.2,3.1-2.1,4.6c-0.2,0.4-0.4,0.6-0.6,1l-0.3,0.5l-0.1,0.2l-0.1,0.1l-0.2,0.2
		c-0.4,0.6-0.8,1.1-1.2,1.7c-0.8,1.1-1.5,2.2-2.1,3.2c-1.3,2.1-2.3,4.2-3,6.1c-0.2,0.5-0.3,0.9-0.5,1.4c-0.1,0.5-0.3,0.9-0.4,1.3
		c-0.3,0.9-0.5,1.7-0.7,2.4c-0.3,1.5-0.6,2.6-0.7,3.4C5.4,177.7,5.3,178.1,5.3,178.1z"/>
</g>
<g>
	<path fill="#426A17" d="M5.5,72c0,0,0,0.4,0,1.2c0,0.8,0,1.9,0.1,3.3c0.1,1.4,0.2,3.1,0.5,5.1c0.1,0.5,0.1,1,0.2,1.5
		c0.1,0.5,0.2,1,0.3,1.5c0.2,1.1,0.5,2.2,0.8,3.3c0.6,2.3,1.4,4.7,2.4,7.3c1,2.6,1.9,5.5,2.7,8.5c0.9,3,1.7,6.1,2.7,9.2
		c1,3.1,2,6.3,3,9.5c1,3.2,1.8,6.4,2.3,9.7c0.5,3.3,0.9,6.6,0.9,9.8c0,3.2-0.4,6.4-1.4,9.4c-0.3,0.7-0.6,1.4-0.9,2.1
		c-0.4,0.7-0.7,1.4-1.1,2c-0.4,0.6-0.9,1.2-1.3,1.8c-0.4,0.5-0.8,1-1.3,1.4c-1.6,1.8-3,3.5-4.2,5.1c-1.2,1.6-2.2,3-3,4.2
		c-1.6,2.4-2.4,3.8-2.4,3.8l-0.4-0.2c0,0,0.1-0.4,0.3-1.2c0.2-0.8,0.6-1.9,1.1-3.2c0.5-1.4,1.2-3,2.2-4.9c0.9-1.8,2.1-3.8,3.6-5.9
		c0.4-0.5,0.7-1,1.1-1.5c0.3-0.5,0.6-1,0.9-1.5c0.3-0.5,0.5-1.1,0.8-1.6c0.2-0.6,0.4-1.2,0.6-1.8c0.7-2.5,1.1-5.2,1.3-8.2
		c0.1-2.9,0-6.1-0.2-9.2c-0.3-3.2-0.6-6.5-1-9.7c-0.4-3.2-1.1-6.5-2-9.6c-0.9-3.1-2.2-6-3.5-8.8c-1.4-2.8-2.8-5.3-4-8
		c-1.2-2.7-1.9-5.4-2.4-7.9c-0.2-1.3-0.4-2.5-0.5-3.7c-0.1-0.6-0.1-1.2-0.1-1.7c0-0.5,0-1.1,0-1.6c0-2.1,0.2-3.9,0.5-5.3
		c0.2-1.5,0.6-2.6,0.8-3.3C5,72.4,5.1,72,5.1,72L5.5,72z"/>
</g>
<g>
	<path fill="#80BA27" d="M20.4,4.6c0,0,0.5,0,1.4,0c0.9,0.1,2.2,0.2,3.8,0.9c0.8,0.4,1.6,0.7,2.5,1.4c0.9,0.7,1.6,1.5,2.4,2.5
		c1.4,2,2.4,4.6,3.3,7.3c0.9,2.7,1.9,5.5,3.4,8.2c1.4,2.7,3.3,5.4,5.5,7.9c2.2,2.4,4.9,4.5,7.8,5.9c0.8,0.3,1.5,0.6,2.3,0.8l0.6,0.2
		c0.1,0,0.2,0.1,0.2,0.1l0.3,0.1l0.7,0.2l0.6,0.1c1.6,0.3,3.4,0.4,5,0.3c3.4-0.2,6.6-1.1,8.9-3.1c0.6-0.5,1.1-1,1.5-1.6l0.2-0.2
		l0.1-0.1l0-0.1c-0.1,0.2,0,0,0,0.1l0,0l0.4-0.6l0.4-0.6c0.1-0.2,0.2-0.3,0.2-0.5c0.3-0.6,0.6-1.3,0.8-2.1l0.3-1.1l0.2-1.1
		c0.4-3,0.1-6.2-1.1-8.7c-1.2-2.5-3.2-4-5.7-4.3c-2.4-0.3-4.8,0.3-6.4,1.5c-0.2,0.1-0.4,0.3-0.6,0.5c-0.1,0.1-0.4,0.4-0.5,0.5
		c-0.2,0.2-0.3,0.4-0.5,0.5c-0.1,0.2-0.3,0.4-0.4,0.5c-0.5,0.8-0.9,1.5-1.1,2.3c-0.5,1.5-0.5,2.8-0.5,3.7c0,0.9,0.1,1.3,0.1,1.3
		S56.2,26.9,56,26c-0.2-0.9-0.4-2.2-0.1-3.9c0.1-0.9,0.4-1.8,0.8-2.8c0.2-0.5,0.5-1,0.8-1.5c0.2-0.2,0.3-0.4,0.5-0.7
		c0.2-0.2,0.4-0.5,0.6-0.7c1.8-1.8,4.7-3,7.9-3c1.6,0.1,3.3,0.4,4.9,1.4c1.6,0.9,2.9,2.4,3.8,4c1.9,3.2,2.6,7.1,2.3,11
		c-0.1,0.5-0.1,1-0.2,1.5c-0.1,0.5-0.2,1-0.3,1.5c-0.3,1-0.6,1.9-1.1,3c-0.1,0.2-0.2,0.5-0.4,0.8l-0.3,0.6l-0.3,0.6l-0.1,0.2
		L74.8,38l-0.1,0.2l-0.2,0.3c-0.6,0.9-1.4,1.7-2.2,2.4c-1.7,1.5-3.6,2.5-5.6,3.2c-2,0.7-4.1,1-6.2,1.2c-4.1,0.2-8.3-0.5-12.1-2.3
		c-3.7-1.8-6.8-4.5-9.2-7.4c-1.2-1.5-2.2-3-3.1-4.5c-0.5-0.8-0.9-1.5-1.3-2.3c-0.2-0.4-0.4-0.8-0.6-1.2c-0.2-0.4-0.3-0.8-0.5-1.2
		c-1.4-3.1-2.1-6.2-2.8-8.9c-0.6-2.8-1.2-5.2-2.2-7.1c-1-1.9-2.3-3.2-3.7-4.1c-1.3-0.8-2.6-1.3-3.4-1.5C20.8,4.6,20.4,4.6,20.4,4.6z
		"/>
</g>
<g>
	<path fill="#426A17" d="M16.8,5.6c0,0,0.3-0.3,1.1-0.6c0.7-0.3,1.9-0.8,3.6-0.7C23,4.3,24.9,5,26.8,5.9c2,0.9,4.1,2.4,5.8,4.6
		c0.4,0.6,0.8,1.1,1.2,1.8c0.4,0.7,0.6,1.4,0.8,2.1c0.4,1.4,0.8,2.7,1.4,4c1.1,2.7,2.5,5.5,4.2,8.2c0.9,1.3,1.8,2.7,2.8,4
		c1,1.3,2.1,2.4,3.3,3.4c1.2,1,2.7,1.8,4.1,2.5c1.5,0.7,3.1,1.2,4.6,1.6c3.2,0.8,6.4,0.5,9.2-0.8c2.8-1.3,5.2-3.6,6.4-6.3
		c0.1-0.3,0.3-0.7,0.4-1l0.2-0.5l0.1-0.6c0.1-0.7,0.3-1.4,0.3-2.1c0.1-1.5,0-2.9-0.3-4.2c-0.3-1.3-0.9-2.5-1.8-3.3
		c-0.4-0.4-0.9-0.8-1.4-1.1c-0.5-0.3-1.1-0.5-1.6-0.6c-2.3-0.6-4.7,0-6.3,1c-1.7,1.1-2.7,2.6-3.3,4c-0.5,1.4-0.6,2.6-0.6,3.4
		c0,0.4,0,0.7,0.1,0.9c0,0.2,0,0.3,0,0.3s0-0.1-0.1-0.3c-0.1-0.2-0.1-0.5-0.2-0.9c-0.1-0.8-0.2-2.1,0.2-3.6c0.4-1.5,1.4-3.4,3.1-4.7
		c1.8-1.4,4.5-2.3,7.3-1.8c0.7,0.1,1.4,0.4,2.1,0.7c0.7,0.3,1.4,0.8,2,1.3c1.2,1.1,2,2.6,2.5,4.2c0.5,1.6,0.7,3.3,0.6,5
		c0,0.8-0.1,1.7-0.3,2.6l-0.1,0.6l-0.2,0.7c-0.1,0.4-0.3,0.9-0.5,1.3c-0.7,1.7-1.8,3.2-3,4.6c-1.3,1.3-2.8,2.5-4.5,3.3
		c-1.7,0.8-3.6,1.3-5.5,1.5c-1.9,0.2-3.8,0-5.7-0.4c-1.8-0.4-3.6-1.1-5.2-1.8c-1.6-0.8-3.3-1.7-4.7-2.9c-1.4-1.2-2.7-2.5-3.7-4
		c-0.5-0.7-1-1.4-1.5-2.1c-0.5-0.7-0.9-1.4-1.4-2.1c-1.8-2.9-3-5.9-4.1-8.8c-0.5-1.4-0.9-3-1.2-4.3c-0.2-0.7-0.3-1.3-0.6-1.8
		c-0.2-0.5-0.6-1.1-0.9-1.6c-1.4-2.1-3.2-3.5-5-4.6c-1.8-1.1-3.4-1.9-4.9-2.1c-1.5-0.2-2.7,0-3.4,0.2C17.2,5.3,16.8,5.6,16.8,5.6z"
		/>
</g>
<g>
	<path fill="#426A17" d="M19,129.7c0,0-0.3-0.4-0.7-1.1c-0.4-0.7-0.8-1.9-1.2-3.3c-0.2-0.7-0.3-1.5-0.4-2.3
		c-0.1-0.8-0.1-1.7-0.1-2.6c0-1.8,0.3-3.8,0.9-5.6c0.1-0.5,0.3-0.9,0.5-1.4l0.1-0.3c0.1-0.2,0.1-0.2,0.2-0.3l0.3-0.6
		c0.4-0.9,0.9-1.7,1.4-2.5c1-1.5,2.2-2.8,3.3-3.7c1.1-0.9,2.1-1.6,2.9-2c0.7-0.4,1.2-0.6,1.2-0.6s-0.2,0.4-0.7,1.1
		c-0.4,0.7-1,1.7-1.6,2.9c-0.6,1.2-1.3,2.5-2,4c-0.3,0.7-0.6,1.5-0.9,2.2l-0.2,0.6l-0.2,0.6c-0.1,0.4-0.3,0.8-0.4,1.2
		c-0.5,1.6-0.9,3.2-1.2,4.8c-0.2,0.8-0.3,1.6-0.4,2.3c-0.1,0.7-0.2,1.4-0.3,2.1c-0.2,1.3-0.3,2.5-0.3,3.3
		C19.1,129.2,19,129.7,19,129.7z"/>
</g>
<g>
	<path fill="#B8D8DC" d="M27.4,103.1c0,0-0.1,0-0.2,0c-0.1,0-0.3-0.1-0.5-0.1c-0.4-0.1-0.9-0.2-1.4-0.2c-0.2,0-0.5,0-0.7,0l0,0l0,0
		l0,0c0,0,0.2,0.1,0.1,0l0,0l0,0l-0.1,0c-0.1,0-0.2,0-0.2,0c-0.1,0.1-0.1,0.1-0.3,0.1c-0.6,0.1-1.3,0.3-2,0.3
		c-1.4,0.2-2.9,0.1-4.1,0c-0.3,0-0.6-0.1-0.8-0.1c-0.3,0-0.5-0.1-0.7-0.1c-0.4,0-0.6,0-0.6,0s0-0.1,0-0.2c0-0.1,0.1-0.3,0.2-0.5
		c0.2-0.4,0.6-0.9,1.1-1.3c0.5-0.4,1.2-0.8,2-1.1c0.4-0.1,0.8-0.3,1.2-0.4c0.4-0.1,0.8-0.2,1.2-0.2c0.4,0,0.9-0.1,1.3,0
		c0.4,0,0.9,0.1,1.3,0.2c0.2,0,0.5,0.1,0.8,0.2c0.2,0,0.2,0.1,0.3,0.1l0.1,0.1l0,0l0,0c-0.1,0,0.1,0,0.1,0l0,0l0,0l0.1,0
		c0.4,0.2,0.7,0.5,1,0.8c0.5,0.6,0.7,1.2,0.8,1.6c0,0.2,0,0.4,0,0.5C27.4,103.1,27.4,103.1,27.4,103.1z"/>
</g>
<g>
	<path fill="#B8D8DC" d="M21.2,95.3c0,0,0,0,0.1-0.1c0.1,0,0.2-0.1,0.4-0.2c0.4-0.2,0.9-0.3,1.5-0.4c0.7-0.1,1.5-0.1,2.4,0.1
		c0.9,0.2,1.8,0.6,2.6,1.3l0.2,0.1l0.1,0.1l0,0l0,0l0,0l0,0c0,0-0.1-0.1,0.1,0.1c0.1,0.1,0.2,0.1,0.2,0.2l0.2,0.2l0.3,0.3
		c0.4,0.5,0.7,0.8,0.9,1.3c0.4,1,0.2,2-0.1,2.7c-0.2,0.4-0.4,0.7-0.6,0.9c-0.2,0.3-0.4,0.5-0.6,0.6c-0.4,0.3-0.7,0.4-0.7,0.4
		l-0.5-0.1c0,0-0.6-0.7-1.6-1.7c-0.3-0.4-0.7-0.7-0.8-1.1c0-0.1,0-0.2,0-0.3c0-0.1,0-0.2,0-0.3c0.2,0-0.3-0.8-0.2-0.8
		c-0.2-0.5-0.5-0.9-0.9-1.3c-0.4-0.4-0.9-0.7-1.3-1c-0.4-0.2-0.9-0.4-1.2-0.5c-0.1-0.1-0.3-0.1-0.4-0.1c-0.1,0-0.1,0-0.1,0
		L21.2,95.3z"/>
</g>
<g>
	<path fill="#B8D8DC" d="M37.6,95.5c0,0-0.6,0.5-1.4,1.2c-0.2,0.2-0.4,0.4-0.5,0.6c-0.1,0.1-0.2,0.2-0.3,0.3l0,0l0,0l0,0l0,0
		c0.1-0.1,0,0,0.1,0l0,0l-0.1,0.1l-0.2,0.2c-0.3,0.3-0.3,0.5-0.4,0.7c-0.1,0.3-0.3,0.5-0.3,0.8c-0.2,0.5-0.1,1.2-0.3,1.6
		c-0.1,0.2-0.3,0.4-0.5,0.5c-0.2,0.2-0.5,0.3-0.7,0.4c-0.3,0.1-0.5,0.2-0.8,0.4c-0.1,0.1-0.3,0.1-0.4,0.2c-0.1,0-0.3,0.1-0.4,0.1
		c-0.3,0.1-0.4,0.2-0.6,0.2c-0.2,0-0.2,0.1-0.2,0.1l-0.6-0.1c0,0-0.1-0.1-0.2-0.2c-0.1-0.1-0.2-0.3-0.4-0.5
		c-0.1-0.1-0.2-0.2-0.3-0.4c-0.1-0.1-0.1-0.3-0.2-0.4c-0.1-0.3-0.3-0.7-0.3-1c-0.1-0.7-0.1-1.6,0.3-2.4c0.2-0.4,0.6-0.7,1-1
		c0.4-0.3,0.8-0.5,1.2-0.8c0.4-0.3,0.8-0.5,1.2-0.7c0.4-0.2,0.9-0.4,1.2-0.5l0.3-0.1l0.1,0l0,0c0,0-0.1,0,0.1,0l0,0l0,0l0,0l0.1,0
		c0.2-0.1,0.4-0.1,0.6-0.1c0.4-0.1,0.7-0.1,1-0.1c0.6,0,1.2,0,1.5,0.1c0.4,0.1,0.5,0.1,0.5,0.1L37.6,95.5z"/>
</g>
<g>
	<path fill="#B8D8DC" d="M41.9,103.4c0,0-0.7-0.4-1.7-0.8c-0.5-0.2-1.1-0.3-1.7-0.4c-0.2,0-0.3,0-0.5,0l-0.1,0l0,0c0.1,0,0,0,0.1,0
		l0,0l0,0l0,0l-0.1,0l-0.3,0c-0.4,0-0.6,0.1-0.9,0.1c-0.3,0.1-0.6,0.2-0.9,0.3c-0.3,0.1-0.5,0.3-0.8,0.4c-0.5,0.1-1.1,0.1-1.6,0.1
		c-0.3,0-0.6,0-0.8-0.1c-0.3,0-0.5,0-0.7-0.1c-0.4-0.1-0.7-0.1-0.7-0.1l-0.3-0.3c0,0,0-0.3,0.1-0.7c0.1-0.2,0.2-0.5,0.3-0.7
		c0.1-0.3,0.3-0.5,0.6-0.8c0.5-0.5,1.2-1.1,2-1.3c0.4-0.1,0.9-0.1,1.4,0c0.5,0.1,1,0.1,1.4,0.2c0.4,0.1,1.1,0.2,1.4,0.4l0.3,0.1
		l0.1,0l0,0l0,0l0,0c0,0-0.1,0,0.1,0l0,0l0.2,0.1c0.2,0.1,0.4,0.2,0.6,0.3c0.7,0.4,1.3,0.9,1.8,1.4c0.4,0.5,0.7,0.9,0.9,1.2
		c0.2,0.3,0.3,0.5,0.3,0.5L41.9,103.4z"/>
</g>
<g>
	<path fill="#B8D8DC" d="M25.9,111.1c0,0-0.1-0.1-0.3-0.3c-0.2-0.2-0.5-0.5-0.8-1c-0.3-0.4-0.6-1-0.7-1.7c-0.1-0.3-0.2-0.7-0.2-1
		c0-0.2,0-0.4,0-0.6l0-0.1c0-0.2,0-0.1,0-0.2l0-0.2c0-0.3,0-0.8,0-1.2c0-0.4,0.1-0.8,0.2-1.1c0.3-0.7,0.9-1.1,1.4-1.4
		c0.6-0.3,1.1-0.4,1.5-0.3c0.4,0,0.7,0.1,0.7,0.1l0.3,0.3c0,0,0,0.3,0.1,0.6c0,0.2,0,0.4,0,0.6c0,0.2,0,0.4,0,0.7
		c0,0.4,0,0.9-0.2,1.2c-0.1,0.2-0.3,0.3-0.4,0.5c-0.2,0.2-0.3,0.3-0.4,0.6l-0.1,0.2c0,0,0,0.1,0,0.1l0,0.1c0,0.1-0.1,0.2-0.1,0.3
		c-0.1,0.2-0.2,0.5-0.2,0.7c-0.1,0.5-0.2,1-0.2,1.4c-0.1,0.9,0,1.5,0,1.5L25.9,111.1z"/>
</g>
<g>
	<path fill="#B8D8DC" d="M34.8,109.7c0,0-0.2-0.8-0.7-1.8c-0.3-0.5-0.6-1-1-1.5c-0.2-0.2-0.5-0.4-0.7-0.6l-0.2-0.1l0,0
		c0,0-0.1-0.1,0.1,0.1l0,0l0,0l0,0l-0.1,0l-0.1-0.1l-0.1-0.1c0,0,0,0-0.1,0c0,0-0.1,0-0.1,0c-0.2-0.1-0.5-0.1-0.8,0
		c-0.3,0-0.6,0-1,0c-0.4-0.1-0.7-0.2-1.1-0.4c-0.4-0.2-0.9-0.5-1.4-1.1c-0.2-0.3-0.4-0.6-0.4-1c0-0.1-0.1-0.4,0-0.4
		c0-0.2,0-0.3,0-0.4c0.1-0.5,0.4-0.7,0.6-0.9c0.2-0.2,0.4-0.3,0.5-0.3c0.1,0,0.2-0.1,0.2-0.1l0.3,0.2c0,0,0,0.1,0.1,0.2
		c0.1,0.1,0.1,0.3,0.2,0.4c0.1,0.2,0.2,0.3,0.4,0.3c0,0,0.1,0,0.1-0.1c0.1,0.1,0.1,0,0.1,0c0-0.1,0.1-0.2,0-0.3
		c0-0.2,0.1-0.2,0.3-0.3c0.2,0,0.6,0,0.9,0.1c0.7,0.2,1.7,0.7,2.6,1.4c0.1,0.1,0.3,0.2,0.4,0.3l0.2,0.2l0.1,0.1l0.1,0.1l0,0.1l0,0
		l0,0l0,0c0.1,0.2,0,0,0.1,0.1l0,0l0.2,0.3c0.2,0.4,0.4,0.8,0.6,1.2c0.3,0.8,0.4,1.6,0.4,2.3c0,0.7-0.1,1.2-0.2,1.6
		c-0.1,0.4-0.2,0.6-0.2,0.6L34.8,109.7z"/>
</g>
<g>
	<path fill="#43BBD3" d="M35.6,99.9c0,0-0.3-0.2-0.8-0.3c-0.3-0.1-0.6-0.1-0.9-0.1c-0.3,0-0.7,0-1,0.1c-0.3,0.1-0.6,0.2-0.9,0.3
		c-0.3,0.1-0.6,0.2-0.8,0.4c-0.5,0.2-0.8,0.4-0.8,0.4l0,0c0,0,0.2-0.3,0.6-0.7c0.2-0.2,0.5-0.4,0.8-0.5c0.3-0.1,0.7-0.2,1.1-0.3
		c0.4-0.1,0.8-0.1,1.1,0c0.3,0,0.7,0.1,0.9,0.2C35.3,99.7,35.6,99.9,35.6,99.9L35.6,99.9z"/>
</g>
<g>
	<path fill="#43BBD3" d="M36.7,101.1c0,0-0.4,0-0.9-0.1c-0.1,0-0.3,0-0.4,0c-0.2,0-0.3,0-0.5,0c-0.3,0-0.7,0-1.1,0
		c-0.4,0-0.7,0.1-1.1,0.2c-0.3,0-0.7,0.1-0.9,0.1c-0.5,0.1-0.9,0.1-0.9,0.1l0,0c0,0,0.3-0.2,0.9-0.4c0.3-0.1,0.6-0.2,0.9-0.2
		c0.4,0,0.7,0,1.1,0c0.4,0,0.8,0,1.1,0.1c0.2,0,0.4,0.1,0.5,0.1c0.2,0,0.3,0.1,0.4,0.1C36.4,101,36.8,101.1,36.7,101.1L36.7,101.1z"
		/>
</g>
<g>
	<path fill="#43BBD3" d="M33.8,96.1c0,0-0.4,0.1-0.9,0.4c-0.2,0.1-0.5,0.3-0.8,0.6c-0.1,0.1-0.2,0.2-0.4,0.4
		c-0.1,0.1-0.2,0.3-0.3,0.4c-0.2,0.3-0.4,0.6-0.5,0.9c-0.2,0.3-0.3,0.5-0.5,0.8c-0.3,0.5-0.6,0.8-0.6,0.8l-0.1,0
		c0,0-0.2-0.4-0.1-1.1c0-0.3,0.1-0.7,0.3-1c0.2-0.3,0.5-0.6,0.8-0.9c0.1-0.1,0.3-0.3,0.5-0.4c0.2-0.1,0.3-0.2,0.5-0.3
		c0.3-0.2,0.7-0.3,1-0.4C33.4,96,33.8,96,33.8,96.1L33.8,96.1z"/>
</g>
<g>
	<path fill="#43BBD3" d="M34.7,96.7c0,0-0.3,0.2-0.8,0.4c-0.1,0.1-0.3,0.1-0.4,0.2c-0.1,0.1-0.3,0.2-0.4,0.3
		c-0.3,0.2-0.5,0.4-0.8,0.7c-0.2,0.3-0.5,0.5-0.7,0.8c-0.2,0.2-0.4,0.5-0.6,0.6c-0.2,0.2-0.4,0.3-0.5,0.4c-0.1,0.1-0.2,0.2-0.2,0.2
		l-0.1,0c0,0,0-0.4,0.3-0.9c0.1-0.3,0.3-0.5,0.5-0.8c0.3-0.3,0.6-0.5,0.9-0.7c0.3-0.2,0.6-0.4,0.9-0.6c0.2-0.1,0.3-0.2,0.5-0.2
		c0.2-0.1,0.3-0.1,0.4-0.2C34.3,96.8,34.7,96.7,34.7,96.7L34.7,96.7z"/>
</g>
<g>
	<path fill="#43BBD3" d="M26.2,96.1c0,0,0.4,0.1,0.9,0.3c0.5,0.2,1.2,0.6,1.7,1.2c0.3,0.3,0.5,0.6,0.7,0.9c0.2,0.3,0.3,0.6,0.4,0.9
		c0.1,0.6,0.1,0.9,0.1,0.9l0,0c0,0-0.2-0.3-0.4-0.8c-0.1-0.2-0.3-0.5-0.4-0.8c-0.2-0.3-0.3-0.6-0.5-0.9c-0.4-0.6-1-1-1.5-1.3
		C26.5,96.3,26.2,96.1,26.2,96.1L26.2,96.1z"/>
</g>
<g>
	<path fill="#43BBD3" d="M25.6,97.2c0,0,0.4,0.1,0.9,0.2c0.3,0.1,0.6,0.2,0.9,0.4c0.2,0.1,0.3,0.2,0.5,0.3c0.2,0.1,0.3,0.2,0.4,0.4
		c0.3,0.3,0.6,0.5,0.8,0.8c0.2,0.3,0.3,0.6,0.4,0.9c0.1,0.6,0,1,0,1l-0.1,0c0,0-0.3-0.3-0.6-0.7c-0.2-0.2-0.3-0.4-0.5-0.7
		c-0.2-0.3-0.3-0.6-0.5-0.8c-0.1-0.1-0.2-0.3-0.3-0.4c-0.1-0.1-0.2-0.2-0.3-0.3c-0.2-0.2-0.5-0.4-0.7-0.6
		C25.9,97.4,25.6,97.3,25.6,97.2L25.6,97.2z"/>
</g>
<g>
	<path fill="#43BBD3" d="M20.6,101.2c0,0,0.4-0.3,1.2-0.6c0.4-0.2,0.8-0.3,1.3-0.4c0.5-0.1,1-0.2,1.6-0.2c0.5,0,1.1,0,1.6,0.1
		c0.5,0.1,1,0.3,1.3,0.5c0.7,0.4,1.1,0.8,1.1,0.8l0,0.1c0,0-0.6,0-1.3-0.2c-0.4-0.1-0.8-0.1-1.3-0.2c-0.5-0.1-0.9-0.2-1.4-0.3
		c-0.5-0.1-1-0.1-1.5,0c-0.5,0-0.9,0.1-1.3,0.2C21.2,101,20.7,101.3,20.6,101.2L20.6,101.2z"/>
</g>
<g>
	<path fill="#43BBD3" d="M20.9,102.3c0,0,0.5-0.2,1.2-0.4c0.2-0.1,0.4-0.1,0.6-0.2c0.2-0.1,0.4-0.1,0.7-0.2c0.5-0.1,1-0.2,1.5-0.3
		c0.5-0.1,1-0.2,1.5-0.2c0.5,0,0.9,0,1.3,0.1c0.8,0.2,1.2,0.4,1.2,0.4l0,0.1c0,0-0.5,0.2-1.2,0.3c-0.4,0.1-0.8,0.1-1.2,0.1
		c-0.5,0-0.9,0-1.4,0c-0.5,0-1,0-1.4,0.1c-0.2,0-0.4,0-0.6,0.1c-0.2,0-0.4,0.1-0.6,0.1C21.4,102.3,20.9,102.4,20.9,102.3L20.9,102.3
		z"/>
</g>
<g>
	<path fill="#43BBD3" d="M24.9,105.8c0,0-0.1-0.4-0.1-1c0-0.3,0-0.7,0.1-1c0-0.2,0.1-0.4,0.2-0.6c0.1-0.2,0.2-0.4,0.3-0.5
		c0.2-0.3,0.5-0.7,0.9-0.9c0.3-0.2,0.7-0.3,1-0.3c0.6-0.1,1,0.1,1,0.1l0,0.1c0,0-0.3,0.3-0.8,0.5c-0.2,0.1-0.5,0.3-0.7,0.5
		c-0.3,0.1-0.6,0.3-0.8,0.5c-0.1,0.1-0.2,0.2-0.3,0.4c-0.1,0.2-0.2,0.3-0.3,0.4c-0.1,0.3-0.3,0.6-0.3,0.8
		C25,105.4,25,105.7,24.9,105.8L24.9,105.8z"/>
</g>
<g>
	<path fill="#43BBD3" d="M26.4,105.5c0,0-0.1-0.4,0-0.9c0-0.3,0.1-0.6,0.2-0.9c0-0.2,0.1-0.3,0.2-0.5c0.1-0.2,0.2-0.3,0.3-0.5
		c0.2-0.3,0.4-0.6,0.7-0.9c0.3-0.2,0.6-0.4,0.9-0.4c0.6-0.2,1-0.1,1-0.1l0,0.1c0,0-0.3,0.3-0.6,0.7c-0.2,0.2-0.4,0.4-0.6,0.6
		c-0.2,0.2-0.5,0.3-0.7,0.6c-0.1,0.1-0.2,0.2-0.3,0.4c-0.1,0.1-0.2,0.3-0.3,0.4c-0.2,0.3-0.3,0.5-0.4,0.8
		C26.6,105.1,26.5,105.5,26.4,105.5L26.4,105.5z"/>
</g>
<g>
	<path fill="#43BBD3" d="M31.1,104c0,0-0.1-0.2-0.2-0.5c-0.2-0.3-0.4-0.7-0.7-1c-0.1-0.1-0.3-0.2-0.5-0.4c-0.1-0.1-0.2-0.3-0.3-0.4
		c-0.2-0.3-0.3-0.6-0.3-0.6l0-0.1c0,0,0.3-0.1,0.7,0c0.2,0.1,0.4,0.2,0.6,0.3c0.2,0.2,0.3,0.4,0.4,0.7c0.2,0.4,0.3,0.9,0.4,1.3
		C31.2,103.8,31.2,104,31.1,104L31.1,104z"/>
</g>
<g>
	<path fill="#43BBD3" d="M32.7,103.6c0,0-0.7-0.7-1.4-1.3c-0.2-0.1-0.4-0.2-0.6-0.3c-0.2-0.1-0.3-0.3-0.4-0.4
		c-0.2-0.3-0.3-0.6-0.3-0.6l0-0.1c0,0,0.3-0.1,0.7,0c0.2,0,0.4,0.1,0.6,0.3c0.2,0.2,0.3,0.4,0.5,0.6c0.3,0.4,0.6,0.8,0.7,1.2
		C32.8,103.4,32.8,103.6,32.7,103.6L32.7,103.6z"/>
</g>
<g>
	<ellipse fill="#D9F8FB" stroke="#595959" stroke-width="0.25" stroke-miterlimit="10" cx="28.4" cy="98.3" rx="1.9" ry="1.9"/>
	<ellipse fill="#D9F8FB" stroke="#595959" stroke-width="0.25" stroke-miterlimit="10" cx="27.6" cy="101.1" rx="1.9" ry="1.9"/>
	<ellipse fill="#D9F8FB" stroke="#595959" stroke-width="0.25" stroke-miterlimit="10" cx="31.1" cy="100.2" rx="1.9" ry="1.9"/>
</g>
<g>
	<path fill="#80BA27" d="M78.2,177.6c0,0,0.2,0,0.5,0.1c0.3,0,0.8,0.1,1.5,0.4c0.3,0.1,0.7,0.4,1,0.5c0.3,0.1,0.5,0.2,0.9,0.2
		c0.7,0.1,1.6,0.1,2.7,0.1c0.3,0,0.6,0,0.8,0c0.2,0,0.6,0,0.9,0c0.6,0,1.3,0,2,0c1.4-0.1,2.8-0.1,4.4-0.2c3.2-0.2,6.9-0.7,10.9-1.6
		c4-0.8,8.4-2,13-3.8c4.8-1.8,9.9-3.7,15.4-5.8c11-4.2,23.6-8.7,37-13.9c6.7-2.6,13.5-5.7,21.3-8.3c7.7-2.5,15.8-4.5,24.2-5.8
		c8.4-1.3,17.2-1.9,26.1-2c8.9-0.1,17.9,0.4,27,1.3c4.6,0.4,9.1,0.8,13.7,1.3c2.3,0.2,4.6,0.5,6.9,0.8c1.2,0.2,2.3,0.3,3.5,0.5
		c1.2,0.2,2.3,0.4,3.5,0.6c9.4,1.5,18.5,4.6,27.6,7.4c9,2.9,18.3,5.4,27.7,7.4c9.4,1.9,18.9,3.5,28.4,4.8c9.5,1.4,19.1,2.4,28.6,3.2
		c4.7,0.4,9.5,0.7,14.1,0.8c4.7,0.2,9.3,0.1,13.9-0.1c9.1-0.5,17.9-2.2,25.9-5.5c2-0.8,4-1.7,5.9-2.7c0.9-0.5,2-1,2.9-1.6
		c1-0.5,1.9-1.1,2.9-1.6c3.7-2.2,7.2-4.6,10.2-7.4c3-2.7,5.6-5.7,7.5-8.9c1.9-3.2,3.1-6.7,3.5-10.1c0.5-3.7,0.4-7.5-0.4-10.9
		c-0.7-3.4-2.1-6.2-4.1-8.1c-2-2-4.7-3.2-7.6-3.6c-3-0.4-6.2,0.1-9.2,1.1c-1.5,0.5-3,1.2-4.3,2c-0.7,0.4-1.3,0.8-2,1.3
		c-0.3,0.2-0.6,0.5-0.9,0.7c-0.2,0.1-0.3,0.2-0.4,0.4l-0.4,0.3c-2.4,2.1-4.3,4.7-5.7,7.4c-1.4,2.7-2.3,5.5-2.5,8.2
		c-0.2,2.6,0.5,5,1.8,6.9c2.8,4.1,8.1,6.6,12.9,6.8c2.4,0.1,4.7-0.3,6.6-1.2c0.5-0.2,0.9-0.5,1.3-0.8l0.3-0.2l0.1-0.1
		c0,0-0.1,0.1,0,0l0.2-0.2l0.4-0.3l0.2-0.2c0.7-0.7,1.4-1.5,1.9-2.4c2.1-3.7,2.7-8.3,1.9-11.7c-0.2-0.8-0.5-1.6-0.9-2.1
		c-0.4-0.5-0.7-0.8-1.3-1c-1.2-0.4-2.9-0.2-4.2,0.3c-2.8,0.9-4.7,2.7-5.5,4.5c-0.8,1.8-0.7,3.5-0.5,4.6c0.1,0.5,0.2,0.9,0.3,1.2
		c0.1,0.3,0.1,0.4,0.1,0.4l-1,0.4c0,0-0.1-0.1-0.2-0.4c-0.1-0.3-0.3-0.7-0.5-1.3c-0.4-1.2-0.9-3.1-0.1-5.6c0.7-2.5,2.9-5.1,6.3-6.7
		c1.7-0.8,3.7-1.4,6.2-1c0.3,0.1,0.6,0.1,1,0.2c0.2,0.1,0.4,0.1,0.6,0.2l0.2,0.1l0.1,0c0.1,0,0,0,0.2,0.1c0.6,0.4,1.2,0.8,1.7,1.3
		c0.9,1,1.5,2.2,1.9,3.4c0.8,2.4,1.1,4.9,1,7.5c-0.2,2.6-0.7,5.4-2,8.1c-0.6,1.4-1.4,2.7-2.5,4l-0.4,0.5l-0.3,0.4l-0.2,0.2
		c0,0-0.2,0.1-0.2,0.2l-0.1,0.1l-0.5,0.4c-0.6,0.6-1.3,1.1-2.1,1.5c-2.9,1.8-6.4,2.7-9.8,2.8c-3.5,0.1-7-0.5-10.5-1.9
		c-3.4-1.4-6.8-3.7-9.3-7c-2.7-3.4-4.1-7.8-4.1-12.2c0-4.3,1.1-8.5,2.9-12.3c0.9-1.9,1.9-3.7,3.2-5.5c0.6-0.9,1.3-1.7,2-2.6
		c0.4-0.4,0.7-0.8,1.1-1.3l0.6-0.6l0.5-0.5l0.7-0.6c0.2-0.2,0.4-0.4,0.6-0.6c0.4-0.4,0.9-0.7,1.3-1.1c0.9-0.7,1.8-1.4,2.8-2
		c1.9-1.2,3.9-2.3,6.1-3.1c4.3-1.7,9.1-2.6,14.2-2.1c5.1,0.5,10.4,2.6,14.4,6.4c2,1.9,3.7,4.1,4.9,6.5c1.3,2.4,2.1,4.9,2.7,7.4
		c0.6,2.5,0.9,5,0.9,7.5c0.1,2.5,0,4.9-0.3,7.4c-0.6,5.2-2.5,10.2-5.2,14.7c-2.7,4.5-6.2,8.3-10,11.5c-3.8,3.3-8,6-12.2,8.4
		c-1.1,0.6-2.1,1.2-3.2,1.7c-1.1,0.6-2.1,1.1-3.2,1.6c-2.2,1.1-4.5,2.1-6.9,2.9c-9.4,3.6-19.5,5.1-29.4,5.4c-5,0.1-9.9-0.1-14.8-0.5
		c-4.9-0.4-9.8-1-14.6-1.7c-4.8-0.7-9.6-1.6-14.4-2.5c-4.8-0.9-9.5-1.9-14.3-2.9c-19-4.1-37.9-9-56-15.1c-9-3-18-5.9-27.1-7
		c-1.1-0.2-2.3-0.3-3.4-0.5c-1.1-0.1-2.3-0.2-3.4-0.3c-2.2-0.2-4.6-0.3-6.9-0.4c-4.5-0.2-9.2-0.2-13.7-0.3
		c-18.1-0.1-35.3,1.4-51.2,4.7c-7.9,1.6-15.6,3.6-22.8,5.9c-3.6,1.2-7,2.4-10.6,3.8c-3.4,1.4-7,2.7-10.5,4
		c-13.8,5-26.5,8.9-37.8,12.3c-2.8,0.9-5.6,1.7-8.2,2.5c-2.6,0.8-5.1,1.6-7.7,2.3c-5.1,1.4-9.9,2.3-14.2,2.8
		c-4.3,0.5-8.3,0.5-11.6,0.4c-1.7,0-3.3-0.2-4.7-0.3c-0.7-0.1-1.4-0.2-2-0.2c-0.3,0-0.6-0.1-1-0.1c-0.3-0.1-0.6-0.1-0.9-0.2
		c-1.2-0.3-2.2-0.5-3.2-1c-0.5-0.2-1-0.5-1.3-0.8c-0.3-0.3-0.5-0.5-0.6-0.6c-0.4-0.3-0.7-0.5-1-0.6c-0.3-0.1-0.4-0.2-0.4-0.2
		L78.2,177.6z"/>
</g>
<g>
	<path fill="#426A17" d="M79.3,177.7c0,0,0.6,0.1,1.7,0.4c1.2,0.2,2.9,0.5,5.1,0.8c2.2,0.3,5,0.6,8.3,0.6c0.8,0,1.7,0,2.6,0
		c0.9,0,1.8,0,2.7-0.1c0.9,0,1.9-0.1,2.9-0.2c1-0.1,2-0.2,3-0.3c4.1-0.5,8.7-1.3,13.5-2.6c2.4-0.7,4.9-1.5,7.5-2.4
		c2.6-1,5.3-1.9,8.1-3c11.1-4.1,23.7-8.6,37.3-13.7c3.4-1.3,6.8-2.6,10.3-4c1.8-0.7,3.5-1.4,5.3-2.2c1.8-0.7,3.6-1.5,5.5-2.2
		c7.5-2.8,15.5-5.1,23.8-6.8c4.2-0.8,8.4-1.5,12.7-2c4.3-0.5,8.7-0.9,13.1-1.1c8.9-0.4,17.9-0.2,27.1,0.4c4.6,0.3,9.2,0.6,13.8,1
		c2.4,0.2,4.6,0.5,7,0.6c2.3,0.2,4.7,0.6,7,0.8c4.7,0.7,9.4,1.6,14,2.8c4.6,1.2,9.2,2.7,13.8,4.1c4.6,1.5,9.1,3,13.7,4.3
		c2.3,0.7,4.6,1.3,7,1.9c2.3,0.6,4.7,1.2,7,1.7c4.7,1.1,9.4,2,14.2,3c4.8,0.8,9.5,1.8,14.3,2.5c9.6,1.5,19.2,2.9,28.7,3.8
		c4.8,0.5,9.5,0.9,14.3,1.1c4.7,0.2,9.5,0.4,14.1,0.2c9.3-0.3,18.4-1.8,26.8-5c4.2-1.6,8.1-3.6,12.1-5.8c3.9-2.2,7.5-4.6,10.7-7.4
		c3.2-2.8,6-5.9,8.2-9.3c2.2-3.4,3.6-7.1,4.2-10.9c1.1-7.8,0.1-16.3-4.4-21.2c-2.2-2.5-5.3-4-8.6-4.5c-3.3-0.5-6.8-0.1-10.1,1
		c-3.3,1.1-6.3,2.8-8.8,5c-2.5,2.2-4.5,5-6,7.9c-1.5,2.9-2.5,6-2.7,8.9c-0.1,1.5,0,2.9,0.4,4.3c0.2,0.7,0.4,1.3,0.7,1.9
		c0.1,0.3,0.3,0.6,0.4,0.9c0.1,0.2,0.2,0.3,0.3,0.4l0.1,0.2l0.1,0.1c0,0,0.1,0.1,0,0c3.2,4.7,8.9,7.2,14.1,7.4
		c2.6,0.1,5.1-0.4,7.2-1.5c0.5-0.3,1-0.6,1.4-0.9l0.3-0.3l0.1-0.1c-0.1,0.1,0,0,0,0l0.2-0.2c0.1-0.1,0.3-0.2,0.4-0.3l0.2-0.3
		c0.7-0.7,1.2-1.7,1.5-2.7c0.7-2,0.7-4.3,0.4-6.5c-0.3-2.1-1-4.2-1.9-5.9c-0.9-1.7-2.1-3.3-3.4-3.6c-1.5-0.4-3.2-0.1-4.6,0.4
		c-2.9,1-4.9,3-5.7,4.9c-0.8,1.9-0.6,3.7-0.4,4.8c0.1,0.6,0.2,1,0.3,1.2c0.1,0.3,0.1,0.4,0.1,0.4l-0.6,0.3c0,0-0.1-0.1-0.2-0.4
		c-0.1-0.3-0.3-0.7-0.5-1.3c-0.3-1.1-0.8-3.1,0-5.5c0.8-2.4,3-4.8,6.2-6.2c1.6-0.7,3.6-1.2,5.8-0.8c1.2,0.2,2.3,0.9,3.1,1.7
		c0.8,0.8,1.5,1.7,2.1,2.7c1.2,1.9,2.2,4.2,2.8,6.6c0.5,2.5,0.8,5.2,0,8.1c-0.4,1.4-1,2.9-2,4.2l-0.4,0.5c-0.1,0.2-0.2,0.3-0.4,0.4
		l-0.2,0.2c-0.1,0.1,0,0-0.2,0.2l-0.1,0.1l-0.4,0.4c-0.6,0.5-1.2,1-1.9,1.4c-2.7,1.7-6,2.5-9.3,2.5c-3.3,0.1-6.7-0.6-9.9-2
		c-1.6-0.7-3.2-1.6-4.6-2.7c-0.7-0.6-1.4-1.2-2.1-1.9c-0.3-0.3-0.7-0.7-1-1.1l-0.2-0.3l-0.2-0.2l-0.4-0.5l-0.5-0.7
		c-0.1-0.2-0.3-0.4-0.4-0.6c-0.2-0.4-0.5-0.9-0.7-1.3c-0.5-0.9-0.8-1.8-1.1-2.8c-0.6-1.9-0.8-4-0.8-6c0.1-4,1.2-7.9,3-11.5
		c1.8-3.6,4.1-7,7.2-9.9c3.1-2.9,6.9-5.2,11-6.7c4.1-1.5,8.7-2.2,13.5-1.5c2.4,0.3,4.7,1,6.9,2.2c0.3,0.1,0.6,0.3,0.9,0.5l0.4,0.2
		l0.3,0.2l0.3,0.2l0.2,0.1l0.3,0.2l0.8,0.5c1,0.7,1.9,1.6,2.8,2.5c3.5,3.7,5.4,8.5,6.3,13.2c0.4,2.4,0.6,4.7,0.6,7.1
		c0,2.4-0.1,4.7-0.5,7.1c-0.8,4.9-2.7,9.6-5.3,13.7c-2.6,4.2-6.1,7.7-9.8,10.8c-3.7,3.1-7.8,5.7-12,8c-4.1,2.3-8.5,4.4-13.2,6.1
		c-9.3,3.3-19.2,4.7-29,4.8c-4.9,0.1-9.8-0.2-14.7-0.6c-4.9-0.4-9.7-1-14.5-1.7c-9.7-1.4-19.2-3.3-28.8-5.3
		c-4.8-0.9-9.5-2.1-14.3-3.1c-4.7-1.2-9.5-2.3-14.2-3.6c-9.4-2.5-18.6-5.4-27.7-8.4c-9.1-3-18.2-5.5-27.4-6.5
		c-2.3-0.2-4.6-0.5-6.9-0.6c-2.3-0.1-4.7-0.3-6.9-0.3c-4.6-0.2-9.2-0.3-13.7-0.3c-18.1-0.2-35.5,1.5-51.6,5.1c-4,0.9-7.9,1.9-11.8,3
		c-3.8,1.1-7.6,2.4-11.2,3.7c-1.8,0.6-3.6,1.4-5.4,2.1c-1.8,0.7-3.6,1.4-5.3,2.1c-3.6,1.4-7.1,2.7-10.5,3.9
		c-13.8,4.9-26.5,9-37.8,12.6c-2.8,0.9-5.6,1.8-8.2,2.6c-2.7,0.8-5.3,1.5-7.9,2.1c-5.1,1.1-9.9,1.7-14.2,1.9c-1.1,0-2.1,0-3.2,0.1
		c-1,0-2,0-3-0.1c-1-0.1-1.9-0.1-2.8-0.1c-0.9-0.1-1.7-0.2-2.6-0.2c-3.4-0.4-6.1-0.9-8.4-1.4c-2.2-0.5-3.9-1-5.1-1.3
		c-1.1-0.3-1.7-0.5-1.7-0.5L79.3,177.7z"/>
</g>
<g>
	<path fill="#426A17" d="M498.4,106.4c0,0-0.3-0.4-0.7-1.1c-0.4-0.7-0.8-1.9-1.2-3.3c-0.2-0.7-0.3-1.5-0.4-2.3
		c-0.1-0.8-0.1-1.7-0.1-2.6c0-1.8,0.3-3.8,0.9-5.6c0.1-0.5,0.3-0.9,0.5-1.4l0.1-0.3c0.1-0.2,0.1-0.2,0.2-0.3l0.3-0.6
		c0.4-0.9,0.9-1.7,1.4-2.5c1-1.5,2.2-2.8,3.3-3.7c1.1-0.9,2.1-1.6,2.9-2c0.7-0.4,1.2-0.6,1.2-0.6s-0.2,0.4-0.7,1.1
		c-0.4,0.7-1,1.7-1.6,2.9c-0.6,1.2-1.3,2.5-2,4c-0.3,0.7-0.6,1.5-0.9,2.2l-0.2,0.6l-0.2,0.6c-0.1,0.4-0.3,0.8-0.4,1.2
		c-0.5,1.6-0.9,3.2-1.2,4.8c-0.2,0.8-0.3,1.6-0.4,2.3c-0.1,0.7-0.2,1.4-0.3,2.1c-0.2,1.3-0.3,2.5-0.3,3.3
		C498.5,105.9,498.4,106.4,498.4,106.4z"/>
</g>
<g>
	<g>
		<path fill="#B8D8DC" d="M503.4,82.3c0,0-0.1,0-0.2,0c-0.1,0-0.3-0.1-0.5-0.1c-0.4-0.1-0.9-0.2-1.4-0.2c-0.2,0-0.5,0-0.7,0l0,0l0,0
			l0,0c0,0,0.2,0.1,0.1,0l0,0l0,0l-0.1,0c-0.1,0-0.2,0-0.2,0c-0.1,0.1-0.1,0.1-0.3,0.1c-0.6,0.1-1.3,0.3-2,0.3
			c-1.4,0.2-2.9,0.1-4.1,0c-0.3,0-0.6-0.1-0.8-0.1c-0.3,0-0.5-0.1-0.7-0.1c-0.4,0-0.6,0-0.6,0s0-0.1,0-0.2c0-0.1,0.1-0.3,0.2-0.5
			c0.2-0.4,0.6-0.9,1.1-1.3c0.5-0.4,1.2-0.8,2-1.1c0.4-0.1,0.8-0.3,1.2-0.4c0.4-0.1,0.8-0.2,1.2-0.2c0.4,0,0.9-0.1,1.3,0
			c0.4,0,0.9,0.1,1.3,0.2c0.2,0,0.5,0.1,0.8,0.2c0.2,0,0.2,0.1,0.3,0.1l0.1,0.1l0,0l0,0c-0.1,0,0.1,0,0.1,0l0,0l0,0l0.1,0
			c0.4,0.2,0.7,0.5,1,0.8c0.5,0.6,0.7,1.2,0.8,1.6c0,0.2,0,0.4,0,0.5C503.4,82.3,503.4,82.3,503.4,82.3z"/>
	</g>
	<g>
		<path fill="#B8D8DC" d="M497.3,74.5c0,0,0,0,0.1-0.1c0.1,0,0.2-0.1,0.4-0.2c0.4-0.2,0.9-0.3,1.5-0.4c0.7-0.1,1.5-0.1,2.4,0.1
			c0.9,0.2,1.8,0.6,2.6,1.3l0.2,0.1l0.1,0.1l0,0l0,0l0,0l0,0c0,0-0.1-0.1,0.1,0.1c0.1,0.1,0.2,0.1,0.2,0.2l0.2,0.2l0.3,0.3
			c0.4,0.5,0.7,0.8,0.9,1.3c0.4,1,0.2,2-0.1,2.7c-0.2,0.4-0.4,0.7-0.6,0.9c-0.2,0.3-0.4,0.5-0.6,0.6c-0.4,0.3-0.7,0.4-0.7,0.4
			l-0.5-0.1c0,0-0.6-0.7-1.6-1.7c-0.3-0.4-0.7-0.7-0.8-1.1c0-0.1,0-0.2,0-0.3c0-0.1,0-0.2,0-0.3c0.2,0-0.3-0.8-0.2-0.8
			c-0.2-0.5-0.5-0.9-0.9-1.3c-0.4-0.4-0.9-0.7-1.3-1c-0.4-0.2-0.9-0.4-1.2-0.5c-0.1-0.1-0.3-0.1-0.4-0.1c-0.1,0-0.1,0-0.1,0
			L497.3,74.5z"/>
	</g>
	<g>
		<path fill="#B8D8DC" d="M513.6,74.8c0,0-0.6,0.5-1.4,1.2c-0.2,0.2-0.4,0.4-0.5,0.6c-0.1,0.1-0.2,0.2-0.3,0.3l0,0l0,0l0,0l0,0
			c0.1-0.1,0,0,0.1,0l0,0l-0.1,0.1l-0.2,0.2c-0.3,0.3-0.3,0.5-0.4,0.7c-0.1,0.3-0.3,0.5-0.3,0.8c-0.2,0.5-0.1,1.2-0.3,1.6
			c-0.1,0.2-0.3,0.4-0.5,0.5c-0.2,0.2-0.5,0.3-0.7,0.4c-0.3,0.1-0.5,0.2-0.8,0.4c-0.1,0.1-0.3,0.1-0.4,0.2c-0.1,0-0.3,0.1-0.4,0.1
			c-0.3,0.1-0.4,0.2-0.6,0.2c-0.2,0-0.2,0.1-0.2,0.1l-0.6-0.1c0,0-0.1-0.1-0.2-0.2c-0.1-0.1-0.2-0.3-0.4-0.5
			c-0.1-0.1-0.2-0.2-0.3-0.4c-0.1-0.1-0.1-0.3-0.2-0.4c-0.1-0.3-0.3-0.7-0.3-1c-0.1-0.7-0.1-1.6,0.3-2.4c0.2-0.4,0.6-0.7,1-1
			c0.4-0.3,0.8-0.5,1.2-0.8c0.4-0.3,0.8-0.5,1.2-0.7c0.4-0.2,0.9-0.4,1.2-0.5l0.3-0.1l0.1,0l0,0c0,0-0.1,0,0.1,0l0,0l0,0l0,0l0.1,0
			c0.2-0.1,0.4-0.1,0.6-0.1c0.4-0.1,0.7-0.1,1-0.1c0.6,0,1.2,0,1.5,0.1c0.4,0.1,0.5,0.1,0.5,0.1L513.6,74.8z"/>
	</g>
	<g>
		<path fill="#B8D8DC" d="M517.9,82.6c0,0-0.7-0.4-1.7-0.8c-0.5-0.2-1.1-0.3-1.7-0.4c-0.2,0-0.3,0-0.5,0l-0.1,0l0,0c0.1,0,0,0,0.1,0
			l0,0l0,0l0,0l-0.1,0l-0.3,0c-0.4,0-0.6,0.1-0.9,0.1c-0.3,0.1-0.6,0.2-0.9,0.3c-0.3,0.1-0.5,0.3-0.8,0.4c-0.5,0.1-1.1,0.1-1.6,0.1
			c-0.3,0-0.6,0-0.8-0.1c-0.3,0-0.5,0-0.7-0.1c-0.4-0.1-0.7-0.1-0.7-0.1l-0.3-0.3c0,0,0-0.3,0.1-0.7c0.1-0.2,0.2-0.5,0.3-0.7
			c0.1-0.3,0.3-0.5,0.6-0.8c0.5-0.5,1.2-1.1,2-1.3c0.4-0.1,0.9-0.1,1.4,0c0.5,0.1,1,0.1,1.4,0.2c0.4,0.1,1.1,0.2,1.4,0.4l0.3,0.1
			l0.1,0l0,0l0,0l0,0c0,0-0.1,0,0.1,0l0,0l0.2,0.1c0.2,0.1,0.4,0.2,0.6,0.3c0.7,0.4,1.3,0.9,1.8,1.4c0.4,0.5,0.7,0.9,0.9,1.2
			c0.2,0.3,0.3,0.5,0.3,0.5L517.9,82.6z"/>
	</g>
	<g>
		<path fill="#B8D8DC" d="M502,90.3c0,0-0.1-0.1-0.3-0.3c-0.2-0.2-0.5-0.5-0.8-1c-0.3-0.4-0.6-1-0.7-1.7c-0.1-0.3-0.2-0.7-0.2-1
			c0-0.2,0-0.4,0-0.6l0-0.1c0-0.2,0-0.1,0-0.2l0-0.2c0-0.3,0-0.8,0-1.2c0-0.4,0.1-0.8,0.2-1.1c0.3-0.7,0.9-1.1,1.4-1.4
			c0.6-0.3,1.1-0.4,1.5-0.3c0.4,0,0.7,0.1,0.7,0.1l0.3,0.3c0,0,0,0.3,0.1,0.6c0,0.2,0,0.4,0,0.6c0,0.2,0,0.4,0,0.7
			c0,0.4,0,0.9-0.2,1.2c-0.1,0.2-0.3,0.3-0.4,0.5c-0.2,0.2-0.3,0.3-0.4,0.6L503,86c0,0,0,0.1,0,0.1l0,0.1c0,0.1-0.1,0.2-0.1,0.3
			c-0.1,0.2-0.2,0.5-0.2,0.7c-0.1,0.5-0.2,1-0.2,1.4c-0.1,0.9,0,1.5,0,1.5L502,90.3z"/>
	</g>
	<g>
		<path fill="#B8D8DC" d="M510.9,89c0,0-0.2-0.8-0.7-1.8c-0.3-0.5-0.6-1-1-1.5c-0.2-0.2-0.5-0.4-0.7-0.6l-0.2-0.1l0,0
			c0,0-0.1-0.1,0.1,0.1l0,0l0,0l0,0l-0.1,0l-0.1-0.1l-0.1-0.1c0,0,0,0-0.1,0c0,0-0.1,0-0.1,0c-0.2-0.1-0.5-0.1-0.8,0
			c-0.3,0-0.6,0-1,0c-0.4-0.1-0.7-0.2-1.1-0.4c-0.4-0.2-0.9-0.5-1.4-1.1c-0.2-0.3-0.4-0.6-0.4-1c0-0.1-0.1-0.4,0-0.4
			c0-0.2,0-0.3,0-0.4c0.1-0.5,0.4-0.7,0.6-0.9c0.2-0.2,0.4-0.3,0.5-0.3c0.1,0,0.2-0.1,0.2-0.1l0.3,0.2c0,0,0,0.1,0.1,0.2
			c0.1,0.1,0.1,0.3,0.2,0.4c0.1,0.2,0.2,0.3,0.4,0.3c0,0,0.1,0,0.1-0.1c0.1,0.1,0.1,0,0.1,0c0-0.1,0.1-0.2,0-0.3
			c0-0.2,0.1-0.2,0.3-0.3c0.2,0,0.6,0,0.9,0.1c0.7,0.2,1.7,0.7,2.6,1.4c0.1,0.1,0.3,0.2,0.4,0.3l0.2,0.2l0.1,0.1l0.1,0.1l0,0.1l0,0
			l0,0l0,0c0.1,0.2,0,0,0.1,0.1l0,0l0.2,0.3c0.2,0.4,0.4,0.8,0.6,1.2c0.3,0.8,0.4,1.6,0.4,2.3c0,0.7-0.1,1.2-0.2,1.6
			c-0.1,0.4-0.2,0.6-0.2,0.6L510.9,89z"/>
	</g>
	<g>
		<path fill="#43BBD3" d="M511.7,79.1c0,0-0.3-0.2-0.8-0.3c-0.3-0.1-0.6-0.1-0.9-0.1c-0.3,0-0.7,0-1,0.1c-0.3,0.1-0.6,0.2-0.9,0.3
			c-0.3,0.1-0.6,0.2-0.8,0.4c-0.5,0.2-0.8,0.4-0.8,0.4l0,0c0,0,0.2-0.3,0.6-0.7c0.2-0.2,0.5-0.4,0.8-0.5c0.3-0.1,0.7-0.2,1.1-0.3
			c0.4-0.1,0.8-0.1,1.1,0c0.3,0,0.7,0.1,0.9,0.2C511.4,78.9,511.7,79.1,511.7,79.1L511.7,79.1z"/>
	</g>
	<g>
		<path fill="#43BBD3" d="M512.8,80.4c0,0-0.4,0-0.9-0.1c-0.1,0-0.3,0-0.4,0c-0.2,0-0.3,0-0.5,0c-0.3,0-0.7,0-1.1,0
			c-0.4,0-0.7,0.1-1.1,0.2c-0.3,0-0.7,0.1-0.9,0.1c-0.5,0.1-0.9,0.1-0.9,0.1l0,0c0,0,0.3-0.2,0.9-0.4c0.3-0.1,0.6-0.2,0.9-0.2
			c0.4,0,0.7,0,1.1,0c0.4,0,0.8,0,1.1,0.1c0.2,0,0.4,0.1,0.5,0.1c0.2,0,0.3,0.1,0.4,0.1C512.5,80.2,512.8,80.3,512.8,80.4
			L512.8,80.4z"/>
	</g>
	<g>
		<path fill="#43BBD3" d="M509.9,75.3c0,0-0.4,0.1-0.9,0.4c-0.2,0.1-0.5,0.3-0.8,0.6c-0.1,0.1-0.2,0.2-0.4,0.4
			c-0.1,0.1-0.2,0.3-0.3,0.4c-0.2,0.3-0.4,0.6-0.5,0.9c-0.2,0.3-0.3,0.5-0.5,0.8c-0.3,0.5-0.6,0.8-0.6,0.8l-0.1,0
			c0,0-0.2-0.4-0.1-1.1c0-0.3,0.1-0.7,0.3-1c0.2-0.3,0.5-0.6,0.8-0.9c0.1-0.1,0.3-0.3,0.5-0.4c0.2-0.1,0.3-0.2,0.5-0.3
			c0.3-0.2,0.7-0.3,1-0.4C509.5,75.2,509.9,75.2,509.9,75.3L509.9,75.3z"/>
	</g>
	<g>
		<path fill="#43BBD3" d="M510.8,76c0,0-0.3,0.2-0.8,0.4c-0.1,0.1-0.3,0.1-0.4,0.2c-0.1,0.1-0.3,0.2-0.4,0.3
			c-0.3,0.2-0.5,0.4-0.8,0.7c-0.2,0.3-0.5,0.5-0.7,0.8c-0.2,0.2-0.4,0.5-0.6,0.6c-0.2,0.2-0.4,0.3-0.5,0.4c-0.1,0.1-0.2,0.2-0.2,0.2
			l-0.1,0c0,0,0-0.4,0.3-0.9c0.1-0.3,0.3-0.5,0.5-0.8c0.3-0.3,0.6-0.5,0.9-0.7c0.3-0.2,0.6-0.4,0.9-0.6c0.2-0.1,0.3-0.2,0.5-0.2
			c0.2-0.1,0.3-0.1,0.4-0.2C510.4,76,510.8,75.9,510.8,76L510.8,76z"/>
	</g>
	<g>
		<path fill="#43BBD3" d="M502.2,75.3c0,0,0.4,0.1,0.9,0.3c0.5,0.2,1.2,0.6,1.7,1.2c0.3,0.3,0.5,0.6,0.7,0.9
			c0.2,0.3,0.3,0.6,0.4,0.9c0.1,0.6,0.1,0.9,0.1,0.9l0,0c0,0-0.2-0.3-0.4-0.8c-0.1-0.2-0.3-0.5-0.4-0.8c-0.2-0.3-0.3-0.6-0.5-0.9
			c-0.4-0.6-1-1-1.5-1.3C502.6,75.5,502.2,75.4,502.2,75.3L502.2,75.3z"/>
	</g>
	<g>
		<path fill="#43BBD3" d="M501.7,76.4c0,0,0.4,0.1,0.9,0.2c0.3,0.1,0.6,0.2,0.9,0.4c0.2,0.1,0.3,0.2,0.5,0.3
			c0.2,0.1,0.3,0.2,0.4,0.4c0.3,0.3,0.6,0.5,0.8,0.8c0.2,0.3,0.3,0.6,0.4,0.9c0.1,0.6,0,1,0,1l-0.1,0c0,0-0.3-0.3-0.6-0.7
			c-0.2-0.2-0.3-0.4-0.5-0.7c-0.2-0.3-0.3-0.6-0.5-0.8c-0.1-0.1-0.2-0.3-0.3-0.4c-0.1-0.1-0.2-0.2-0.3-0.3c-0.2-0.2-0.5-0.4-0.7-0.6
			C502,76.7,501.6,76.5,501.7,76.4L501.7,76.4z"/>
	</g>
	<g>
		<path fill="#43BBD3" d="M496.7,80.4c0,0,0.4-0.3,1.2-0.6c0.4-0.2,0.8-0.3,1.3-0.4c0.5-0.1,1-0.2,1.6-0.2c0.5,0,1.1,0,1.6,0.1
			c0.5,0.1,1,0.3,1.3,0.5c0.7,0.4,1.1,0.8,1.1,0.8l0,0.1c0,0-0.6,0-1.3-0.2c-0.4-0.1-0.8-0.1-1.3-0.2c-0.5-0.1-0.9-0.2-1.4-0.3
			c-0.5-0.1-1-0.1-1.5,0c-0.5,0-0.9,0.1-1.3,0.2C497.2,80.3,496.8,80.5,496.7,80.4L496.7,80.4z"/>
	</g>
	<g>
		<path fill="#43BBD3" d="M497,81.5c0,0,0.5-0.2,1.2-0.4c0.2-0.1,0.4-0.1,0.6-0.2c0.2-0.1,0.4-0.1,0.7-0.2c0.5-0.1,1-0.2,1.5-0.3
			c0.5-0.1,1-0.2,1.5-0.2c0.5,0,0.9,0,1.3,0.1c0.8,0.2,1.2,0.4,1.2,0.4l0,0.1c0,0-0.5,0.2-1.2,0.3c-0.4,0.1-0.8,0.1-1.2,0.1
			c-0.5,0-0.9,0-1.4,0c-0.5,0-1,0-1.4,0.1c-0.2,0-0.4,0-0.6,0.1c-0.2,0-0.4,0.1-0.6,0.1C497.5,81.6,497,81.6,497,81.5L497,81.5z"/>
	</g>
	<g>
		<path fill="#43BBD3" d="M501,85c0,0-0.1-0.4-0.1-1c0-0.3,0-0.7,0.1-1c0-0.2,0.1-0.4,0.2-0.6c0.1-0.2,0.2-0.4,0.3-0.5
			c0.2-0.3,0.5-0.7,0.9-0.9c0.3-0.2,0.7-0.3,1-0.3c0.6-0.1,1,0.1,1,0.1l0,0.1c0,0-0.3,0.3-0.8,0.5c-0.2,0.1-0.5,0.3-0.7,0.5
			c-0.3,0.1-0.6,0.3-0.8,0.5c-0.1,0.1-0.2,0.2-0.3,0.4c-0.1,0.2-0.2,0.3-0.3,0.4c-0.1,0.3-0.3,0.6-0.3,0.8
			C501.1,84.6,501.1,85,501,85L501,85z"/>
	</g>
	<g>
		<path fill="#43BBD3" d="M502.5,84.7c0,0-0.1-0.4,0-0.9c0-0.3,0.1-0.6,0.2-0.9c0-0.2,0.1-0.3,0.2-0.5c0.1-0.2,0.2-0.3,0.3-0.5
			c0.2-0.3,0.4-0.6,0.7-0.9c0.3-0.2,0.6-0.4,0.9-0.4c0.6-0.2,1-0.1,1-0.1l0,0.1c0,0-0.3,0.3-0.6,0.7c-0.2,0.2-0.4,0.4-0.6,0.6
			c-0.2,0.2-0.5,0.3-0.7,0.6c-0.1,0.1-0.2,0.2-0.3,0.4c-0.1,0.1-0.2,0.3-0.3,0.4c-0.2,0.3-0.3,0.5-0.4,0.8
			C502.6,84.3,502.6,84.7,502.5,84.7L502.5,84.7z"/>
	</g>
	<g>
		<path fill="#43BBD3" d="M507.2,83.3c0,0-0.1-0.2-0.2-0.5c-0.2-0.3-0.4-0.7-0.7-1c-0.1-0.1-0.3-0.2-0.5-0.4
			c-0.1-0.1-0.2-0.3-0.3-0.4c-0.2-0.3-0.3-0.6-0.3-0.6l0-0.1c0,0,0.3-0.1,0.7,0c0.2,0.1,0.4,0.2,0.6,0.3c0.2,0.2,0.3,0.4,0.4,0.7
			c0.2,0.4,0.3,0.9,0.4,1.3C507.3,83,507.3,83.3,507.2,83.3L507.2,83.3z"/>
	</g>
	<g>
		<path fill="#43BBD3" d="M508.8,82.9c0,0-0.7-0.7-1.4-1.3c-0.2-0.1-0.4-0.2-0.6-0.3c-0.2-0.1-0.3-0.3-0.4-0.4
			c-0.2-0.3-0.3-0.6-0.3-0.6l0-0.1c0,0,0.3-0.1,0.7,0c0.2,0,0.4,0.1,0.6,0.3c0.2,0.2,0.3,0.4,0.5,0.6c0.3,0.4,0.6,0.8,0.7,1.2
			C508.8,82.6,508.9,82.8,508.8,82.9L508.8,82.9z"/>
	</g>
	<g>
		<ellipse fill="#D9F8FB" stroke="#595959" stroke-width="0.25" stroke-miterlimit="10" cx="504.5" cy="77.5" rx="1.9" ry="1.9"/>
		<ellipse fill="#D9F8FB" stroke="#595959" stroke-width="0.25" stroke-miterlimit="10" cx="503.7" cy="80.3" rx="1.9" ry="1.9"/>
		<ellipse fill="#D9F8FB" stroke="#595959" stroke-width="0.25" stroke-miterlimit="10" cx="507.2" cy="79.4" rx="1.9" ry="1.9"/>
	</g>
</g>
<g>
	<path fill="#FBFBFB" d="M464.4,80c-0.2,0.2-0.6,0.9-0.9,3.3c-0.1,0.6-0.2,2.2,0,4.8c0.3,3.3,0.7,3.9,1,4.2c0.1,0.1,1.2,1.3,2.3,1.1
		c2-0.4,2.6-4.9,2.7-7.5c0-2.5-0.5-7-2.4-7.4C466,78.3,464.9,79.4,464.4,80z"/>
	<path fill="#FEF67B" d="M496.9,64.1c0,0.1,0,0.2,0,0.2c-0.1,0.1,0,0.3,0,0.5c-0.6,2-1.2,3.9-2,5.8c-1,2.4-2.4,4.6-4.3,6.4
		c-0.5,0.4-0.9,0.9-1.4,1.3c0.9-0.2,1.9-0.2,2.8-0.3c0.2,0,0.5,0,0.6,0.2c0.1,0.3-0.1,0.5-0.2,0.6c-1.2,1.3-2.3,2.6-3.5,3.9
		c-0.4,0.4-0.7,1-1.3,1.2c-0.1,0-0.2-0.1-0.2-0.2c-0.5-1.4-0.9-2.8-1.8-4c-0.4-0.7-1-1.3-1.6-1.9c-0.2-0.2-0.4-0.4-0.5-0.7
		c0.2-0.8,0.5-1.5,0.9-2.2c0.1-0.3,0.5-0.3,0.6-0.6c0.5-1,1.4-1.7,2.1-2.5c0.2-0.1,0.4-0.4,0.6-0.5c0.6-0.7,1.4-1.1,2.1-1.5
		c1.5-0.9,2.8-1.9,4-3.2c0.8-0.8,1.4-1.8,2.1-2.7c0.1-0.2,0.2-0.4,0.3-0.6c0.2-0.3,0.4-0.3,0.4,0.1C496.8,63.8,496.8,64,496.9,64.1z
		"/>
	<path fill="#FEF67B" d="M469.6,73c0.3-0.9,0.8-1.6,1.5-2.3c0.3-0.1,0.3,0.1,0.3,0.3c-0.6,1.7-1.3,3.3-1.7,5.1
		c-0.2,0.7-0.2,1.4-0.3,1.9c0.6-1.2,0.9-2.7,1.7-4c0.1-0.2,0.2-0.4,0.4-0.5c0.2-0.3,0.4-0.5,0.6-0.8c0.2-0.1,0.3-0.3,0.5-0.4
		c0.7-0.8,1.7-1.5,2.4-2.3c0.2-0.2,0.4-0.4,0.6-0.5c0.7-1,1.5-2,2.1-3.1c0.2,0.3,0.2,0.6,0.4,0.9c0,0,0,0.1,0,0.1
		c-0.1,0.2,0.1,0.5,0.1,0.7c-0.5,3.1-1.9,5.9-3.7,8.4c0.5-0.3,0.9-0.5,1.4-0.7c0.2-0.1,0.5-0.2,0.7,0.1c0.2,0.2,0,0.5-0.1,0.7
		c-0.8,1.5-1.9,2.9-3,4.2c-0.3,0.3-0.8,0.5-0.6,1.1c0.1,0.1,0.4,0.1,0.4,0.4c-0.2,0.2-0.4,0.3-0.7,0.3c-0.6,0.2-1.2,0.5-1.6,1.1
		c-0.4,0.5-0.8,0.9-1.1,1.4c-0.1,0.2-0.3,0.4-0.5,0.4c-0.5,0-0.9,0-1.3-0.3c0-0.4-0.1-0.8-0.1-1.2c0.1-0.6,0-1.3-0.1-1.9
		c-0.1-0.5-0.2-0.9-0.3-1.4c-0.3-1-0.8-1.7-1.9-1.8c-0.5-0.1-0.9-0.3-1.3-0.7c-0.2-0.4-0.4-0.9-0.1-1.4c0.1-0.1,0.2-0.1,0.3-0.1
		c0.1,0,0.1,0,0.2,0c0.2-0.1,0.4-0.1,0.6-0.1c0.3,0,0.6,0.1,0.9,0.1c0.1,0.1,0.3,0.1,0.4,0.2c0.5,0.5,1.1,0.6,1.6,0
		c0.4,0.2,0.1,0.7,0.3,1c0,0.3,0,0.5,0.1,0.8c-0.2-0.3,0-0.7-0.1-1.1c-0.1-0.4,0.2-0.7,0.1-1.1c0-0.2,0.1-0.2,0.2-0.3
		c-0.1-0.4,0.1-0.7,0.3-1c0-0.5,0.3-1,0.4-1.5C469.4,73.5,469.5,73.3,469.6,73z"/>
	<path fill="#FEF67B" d="M473.1,82.2c-0.1-0.2-0.4,0-0.5-0.2c0.1-0.2,0.3-0.2,0.5-0.2c0.3,0,0.6,0.1,0.8-0.1
		c0.1-0.1,0.2-0.2,0.3-0.2c0.3,0.1,0.2-0.3,0.4-0.3c0.3-0.4,0.8-0.6,1.1-1c0.4,0,0.3-0.4,0.6-0.5c1.2-1.2,2.3-2.5,3.2-3.9
		c0.1-0.2,0.2-0.5,0.6-0.5c0.1,0,0.2,0.1,0.3,0.1c0.1,0.2,0.3,0.2,0.4,0.3l0,0c1.1,0.8,1.6,2,1.8,3.3c0.4,2.1-1,4.4-3,5.1
		c-0.1,0-0.2,0.1-0.3,0.1c-0.1,0-0.3-0.1-0.4-0.1c-1.1-0.9-2.3-1.5-3.7-1.7c-0.5,0-0.9-0.1-1.4,0C473.6,82.3,473.3,82.4,473.1,82.2z
		"/>
	<path fill="#FECE7A" d="M479.3,84c2.8-1,4-3.9,2.7-6.5c-0.3-0.6-0.7-1.2-1.2-1.8c0.1,0,0.2,0,0.2,0c0.1,0,0.2,0.2,0.4,0.1
		c0.3,0.1,0.5,0.3,0.7,0.4c0.5,0.4,1.1,0.6,1.4,1.2c0.6,0.7,1.4,1.3,2,2.1c0.1,0.1,0.1,0.2,0.1,0.3c0.4,0.9,0.3,1.8,0.1,2.7
		c-0.3,1.7-1.1,3.2-2.1,4.6c-0.1,0.2-0.3,0.3-0.5,0.4c-0.4,0.3-0.8,0.3-1-0.2c-0.7-1.1-1.5-2.1-2.5-2.9
		C479.5,84.4,479.2,84.3,479.3,84z"/>
	<path fill="#FECE7A" d="M473.1,81.8c-0.2,0-0.3,0.1-0.5,0.1c-0.4,0-0.4-0.2-0.1-0.4c1.1-1.2,2.2-2.5,3.1-3.9
		c0.3-0.4,0.5-0.8,0.8-1.3c0.1-0.1,0.2-0.3,0.1-0.4c-0.1-0.2-0.3-0.1-0.5,0c-0.6,0.3-1.3,0.6-2,0.9c0.5-0.8,1-1.6,1.5-2.4
		c1.2-1.9,2-3.9,2.4-6.1c0-0.1,0.1-0.2,0.1-0.2c0.1,0,0.2,0,0.1,0.1c0.1,0.3,0.4,0.6,0.2,1c0.3,0.2,0.1,0.5,0.1,0.7
		c0,0.2,0.2,0.5,0.1,0.7c0.1,0.2,0.1,0.4,0.1,0.6c-0.1,0.3,0,0.5-0.1,0.8c0,0.2,0,0.5,0,0.7c0,0.3-0.1,0.6-0.2,0.9
		c0.2,0.3,0.1,0.6,0,0.9c0.2,0.2,0.1,0.5,0,0.7c0,0.1-0.1,0.1-0.1,0.2c0,0,0.1,0,0.1-0.1c0.2-0.1,0.3-0.3,0.5-0.4
		c0.2-0.2,0.4-0.2,0.7-0.3c0.2-0.3,0.5-0.5,0.8-0.6c0,0,0.1,0.1,0.1,0.1c0,0,0,0,0,0.1c0,0.4-0.3,0.6-0.4,0.9
		c-0.9,1.2-1.7,2.4-2.7,3.5c-0.3,0.4-0.7,0.7-1,1c-0.2,0.1-0.3,0.3-0.6,0.4c-0.2,0.5-0.8,0.6-1.1,1c-0.2,0-0.2,0.2-0.4,0.2
		c-0.2,0-0.3,0.2-0.5,0.3c-0.2,0.1-0.4,0.2-0.5,0.2C473.2,81.9,473.2,81.9,473.1,81.8z"/>
	<path fill="#FEF67B" d="M464.6,92.1c0.6,0.2,1.3,0.4,2,0.6c1,0.1,1.8,0.8,2.6,1.2c1.1,0.7,2.1,1.6,3.2,2.4c0.2,0.1,0.3,0.3,0.4,0.5
		c-0.1,0.6-0.6,0.3-0.9,0.4c-0.5,0-1.1-0.1-1.6-0.1c-0.3,0-0.6,0-0.9,0c-0.3,0-0.6,0-0.8-0.1c-0.4-0.1-0.8,0-1.3-0.1
		c-0.5,0-0.9,0-1.4,0c-0.4-0.2-0.8-0.1-1.2-0.2c-0.1,0-0.1,0-0.2-0.1c-0.1,0-0.1-0.1-0.1-0.1c0-0.1,0-0.2,0-0.3
		c0-0.1,0.1-0.2,0.1-0.4c0-0.1,0-0.2,0-0.4c0-0.1,0-0.2,0-0.3c0-0.1,0-0.3,0.1-0.4c0.1-0.2,0-0.4,0-0.6c0-0.3,0-0.5,0-0.8
		c0-0.3,0-0.6,0-0.9C464.4,92.4,464.3,92.1,464.6,92.1z"/>
	<path fill="#FEF47A" d="M482.1,76.2c-0.3,0-0.5-0.2-0.7-0.4c-0.2-0.2,0-0.4,0.1-0.5c-0.1-0.1-0.1-0.2,0-0.4
		c0.2-0.2,0.1-0.5,0.4-0.7c0.4-1.4,1.2-2.6,2.1-3.7c0.7-0.8,1.4-1.6,2.2-2.3c0.1,0,0.1,0,0.2,0c0,0.1,0,0.1,0,0.2
		c0.1,0,0.1,0.1,0.1,0.2c-0.2,0.1-0.2,0.3-0.2,0.5c0,0.2-0.2,0.4-0.3,0.6c-1.2,2-2.5,3.8-3.4,6C482.4,76,482.3,76.2,482.1,76.2z"/>
	<path fill="#FDCE7A" d="M482.1,76.2c0.9-2.1,2.1-4,3.3-6c0.1-0.2,0.2-0.4,0.5-0.4c0,0.5-0.3,0.9-0.4,1.3c-0.2,0.2-0.3,0.5-0.3,0.8
		c0,0.4-0.3,0.8-0.4,1.2c0,0.3-0.2,0.6-0.1,0.9c0,0.2-0.1,0.4-0.1,0.7c0,0.2-0.2,0.3-0.1,0.5c-0.3,0.7-0.6,1.5-0.9,2.2
		C483.1,77,482.6,76.6,482.1,76.2z"/>
	<path fill="#010101" d="M465.2,88.6c0-0.8,0.1-1.7,0.5-2.4c0.1-0.2,0.3-0.4,0.6-0.3c0.3,0.1,0.3,0.4,0.3,0.6c0,0.6-0.2,1.3,0.5,1.7
		c0.2,0.1,0.1,0.6,0,0.9c0,0.5-0.1,1-0.3,1.5c-0.1,0.3-0.3,0.8-0.7,0.8c-0.5,0-0.6-0.5-0.7-0.8C465.3,89.9,465.2,89.3,465.2,88.6z"
		/>
	<path fill="#FECE7B" d="M469.1,93.9c-0.9-0.4-1.7-0.9-2.6-1.3c0.8-1.2,1.1-2.5,1.3-3.9c0.2-1.2,0.1-2.4,0.2-3.6
		c0.5,0,1,0.1,1.4,0.1c0.1,0.3-0.1,0.5-0.2,0.8c-1,2.1-1.1,4.2-0.5,6.4C468.7,93,469.2,93.4,469.1,93.9z"/>
	<path fill="#020201" d="M464.3,78.2c0.5,0.3,1,0.6,1.6,0.7c0.6,0.1,1.1,0.5,1.3,1c0.3,0.7,0.6,1.4,0.6,2.2c0,0.3,0.2,0.6-0.1,0.8
		c-0.2-1-0.4-2-1-2.8c-0.7-1-1.4-1-2.1,0c-0.2,0.3-0.4,0.7-0.5,1.1c-0.2,0-0.3-0.2-0.3-0.3c0-0.1-0.1-0.3-0.1-0.4
		c-0.1-0.8-0.3-1.6-0.6-2.4c-0.1-0.1-0.2-0.3,0-0.5c0.2-0.1,0.3,0,0.5,0C463.8,77.8,464.1,77.9,464.3,78.2z"/>
	<path fill="#C59D5A" d="M463.9,80.5c0,0.1,0,0.3,0,0.4c0.1,0.2,0,0.4,0.1,0.7c0,0.1,0,0.2-0.1,0.2c-0.2,0.1-0.5,0-0.8,0
		c0.1,0.4,0.4,0.7,0.4,1.1c-0.1,0.1-0.2,0.2-0.3,0.1c-0.3-0.6-0.7-1-0.9-1.7c-0.2-0.2-0.2-0.5-0.3-0.8c-0.1-0.3-0.2-0.6-0.2-0.9
		c0-0.1,0-0.2,0-0.4c-0.1-0.3,0-0.6-0.1-0.8c0-0.2,0.1-0.4,0.1-0.6c0.2-0.2,0.3,0,0.4,0.2C462.8,78.8,463.5,79.6,463.9,80.5z"/>
	<path fill="#FCCD7A" d="M471.2,74c-0.7,1.1-1,2.4-1.5,3.6c-0.1,0.3-0.3,0.6-0.5,0.9c0.2-2.6,1-5.1,2.1-7.4c0,0,0,0,0.1,0.1
		c0,0.1,0,0.2,0,0.3c0,0.3,0,0.6,0,0.8c0,0.1,0,0.2-0.1,0.3c-0.2,0.2-0.1,0.4-0.1,0.6C471.3,73.5,471.1,73.8,471.2,74z"/>
	<path fill="#F4C572" d="M463.9,80.5c-0.8-0.8-1.3-1.8-1.9-2.7c-0.1,0-0.1-0.1,0-0.1c0.5-0.3,1.1-0.6,1.7-0.7
		c0.2-0.2,0.3-0.3,0.5-0.1c-0.2,0.5,0.1,0.9,0.1,1.3c-0.4-0.2-0.8-0.4-1.3-0.6C463.5,78.6,463.8,79.5,463.9,80.5z"/>
	<path fill="#16120C" d="M463.5,82.8c-0.2-0.4-0.4-0.8-0.7-1.3c0.4,0.1,0.8,0,1.1,0.2c-0.1,0.3-0.1,0.5-0.2,0.8
		C463.7,82.7,463.8,82.9,463.5,82.8z"/>
	<path fill="#DCD46F" d="M479,75.2c-0.2,0.1-0.4,0.3-0.6,0.4c-0.1,0-0.3,0.2-0.3-0.1c0-0.3,0.1-0.5,0.1-0.8c0.2,0,0.4,0.1,0.5,0.3
		C479.1,74.9,479.1,75,479,75.2z"/>
	<path fill="#1A1A17" d="M467.7,82.8c0.2-0.2,0-0.5,0.1-0.8c0.1,0.7,0.2,1.3,0,2C467.8,83.6,467.7,83.2,467.7,82.8z"/>
	<path fill="#D2CC66" d="M468.3,76.6c0.3,0.4-0.1,0.7,0,1.1c0,0.2,0.2,0.4-0.1,0.4c0-0.4,0.1-0.7-0.2-1
		C468.1,76.9,468.2,76.7,468.3,76.6z"/>
	<path fill="#302E2B" d="M463.5,82.8c0.1-0.1,0.1-0.2,0.2-0.3c-0.1,0.3-0.1,0.5-0.2,0.8c-0.2-0.1-0.3-0.2-0.3-0.4
		C463.4,83,463.5,83,463.5,82.8z"/>
	<path fill="#9E998F" d="M463.5,84.9c0,0.2,0,0.4,0,0.6c-0.3-0.2-0.3-0.4-0.1-0.6C463.4,84.9,463.5,84.9,463.5,84.9z"/>
	<path fill="#9F9C77" d="M468.8,75.3c-0.1,0.3-0.2,0.6-0.3,1C468.4,75.9,468.5,75.5,468.8,75.3z"/>
	<path fill="#A29C4E" d="M471.3,71.2c0-0.2,0.1-0.3-0.2-0.4c0-0.1,0-0.2,0.2-0.3c0.2-0.1,0.2,0.1,0.2,0.2
		C471.5,70.9,471.6,71.1,471.3,71.2L471.3,71.2z"/>
	<path fill="#C7C6C6" d="M463.4,84.3c0-0.2,0.1-0.4,0.2-0.6c0.2,0.2,0,0.4,0,0.6C463.5,84.3,463.4,84.3,463.4,84.3z"/>
	<path fill="#60533C" d="M464,81.6c-0.2-0.2-0.1-0.4-0.1-0.7c0.1,0.1,0.1,0.2,0.2,0.3C464.1,81.3,464.1,81.4,464,81.6z"/>
	<path fill="#696866" d="M463.4,84.3c0,0,0.1,0,0.1,0c0,0.2,0,0.4,0,0.6c0,0-0.1,0-0.1,0C463.4,84.7,463.4,84.5,463.4,84.3z"/>
	<path fill="#B2AB56" d="M486.3,68.3c0.1,0,0.1,0,0.2,0c0,0.1-0.1,0.1-0.2,0.2C486.3,68.4,486.3,68.4,486.3,68.3z"/>
	<path fill="#FECE7B" d="M487.6,84c1-0.9,1.8-2,2.8-3c0.6-0.6,1.2-1.3,1.8-2c0.2-0.2,0.4-0.3,0.4-0.7c-1.2-0.1-2.4,0.3-3.6,0.2
		c1-1.1,2.1-2,2.9-3.1c1.4-1.8,2.6-3.8,3.3-6c0.5-1.3,0.9-2.7,1.3-4c0.1-0.2,0.1-0.5,0.3-0.7c0.4,0.2,0,0.6,0.2,0.8l0,0
		c0.1,0.3,0,0.5,0.1,0.8c0,0,0,0,0,0c0,0,0,0,0.1,0c0.1,0.1,0.1,0.2,0.1,0.3c0,0.3-0.1,0.6,0,0.9c0,0,0,0.1,0,0.1
		c0.1,0.1,0.1,0.2,0,0.2c-0.1,0.2-0.1,0.4,0.1,0.6c0,0.1,0,0.3,0,0.4c-0.1,0.4,0,0.8-0.1,1.1c-0.1,0.4,0,0.7-0.1,1.1l0,0
		c-0.1,0.2,0,0.4-0.1,0.6c-0.1,0.3-0.1,0.7-0.2,1.1c0,0.1,0,0.1-0.1,0.2c-0.1,0.2,0,0.4-0.1,0.6c0,0.1-0.1,0.2,0,0.3
		c-0.3,1.7-1,3.2-1.6,4.8c0,0.1-0.2,0.2,0.1,0.3c1.4-1,2.7-1.9,4.1-2.9c-0.2,0.9-0.7,1.5-1.2,2.2c-1,1.4-2.4,2.6-3.8,3.7
		c-2.1,1.8-4.5,3.3-6.7,4.9c-0.4-0.3-0.1-0.8-0.3-1.1c-0.1-0.3-0.1-0.5-0.1-0.8C487.6,84.7,487.3,84.4,487.6,84z"/>
	<path fill="#BC954A" d="M487.7,85.1c0,0.3,0,0.5,0,0.8c0.1,0.4-0.1,0.9,0,1.3c0,0.2,0.1,0.3,0,0.5c-0.1,0.2,0,0.4-0.1,0.6
		c-0.1,0.2-0.2,0.4-0.1,0.6c0,0,0,0.1,0,0.1c-0.2,0.2-0.4,0.2-0.6,0.1c-0.4-0.2-0.9,0.1-1.2-0.3c0-0.3,0.3-0.4,0.5-0.6
		c-0.8-0.3-1.7-0.3-2.5-0.5c-0.2,0-0.5,0-0.7-0.2c1.4-1.5,2.2-3.3,2.6-5.2c0.2-0.8,0-1.7,0-2.5c0.9,1,1.3,2.2,1.7,3.5
		c0.1,0.2,0.1,0.4,0.1,0.6C487.5,84.3,487.5,84.7,487.7,85.1z"/>
	<path fill="#C59D5A" d="M490.8,93.3c0,0.2,0,0.3,0,0.5c-0.1,0-0.1,0.2-0.1,0.3c-0.1,0.1,0,0.3-0.2,0.4c0,0.1-0.1,0.1-0.1,0.2
		c-0.1,0.2-0.2,0.4-0.4,0.5c-0.1,0.1-0.3,0.2-0.4,0.3c-0.2,0.1-0.4,0.2-0.6,0.3c-0.1,0-0.2,0-0.4,0.1c-0.3,0-0.6,0.1-0.8,0.2
		c-0.4,0.1-0.7,0.1-1.1,0c-0.3-0.1-0.6-0.1-0.8-0.2c-0.4-0.2-0.8-0.3-1.1-0.6c-0.1-0.1-0.2-0.2-0.3-0.3c-0.7-0.5-1.5-0.9-1.9-1.7
		c0-0.1,0-0.3,0-0.4c0.2-0.3,0.3-0.7,0.8-0.7c1.1,0.3,2,0.8,3.1,1c1.6,0.3,2.9,0,3.8-1.4c0.1-0.2,0.2-0.3,0.4-0.3
		c0.2,0.2,0.1,0.5,0.1,0.7C490.9,92.5,490.9,92.9,490.8,93.3z"/>
	<path fill="#FECE7A" d="M490.7,91.4c-0.7,1.2-1.7,2.1-3.2,2c-0.7,0-1.3-0.1-1.9-0.3c-0.8-0.2-1.6-0.5-2.3-0.9
		c0.1-0.5,0.5-0.5,0.9-0.7c-0.2-0.1-0.5-0.2-0.6-0.4c-0.1-0.1-0.1-0.2,0-0.3c1.1,0.1,2.2,0.4,3.4,0.3c0.5,0,0.9-0.1,1.4-0.2
		c0.6-0.2,1-0.6,1.3-1.1C490.2,90.2,490.5,90.8,490.7,91.4z"/>
	<path fill="#FEF67A" d="M489.7,89.8c-0.1,0.7-0.7,1.2-1.6,1.3c-1.4,0.3-2.8,0.2-4.2-0.2c-0.2,0-0.3-0.1-0.5-0.1
		c-0.2,0.1-0.4,0-0.5-0.2c-0.1-0.2,0-0.3,0.1-0.4c0.8-0.6,1.6-1.3,2.6-1.5c0.4,0.1,0.9,0.1,1.3,0.2c0.3,0,0.6,0,0.8,0
		c0.1,0,0.1,0,0.2,0c0.1,0.2,0.4,0.1,0.6,0.2C489,89.3,489.3,89.6,489.7,89.8z"/>
	<path fill="#FEFEFE" d="M468.6,92.6c-0.8-2.3-0.5-4.4,0.5-6.6c0.1-0.2,0.2-0.5,0.3-0.7c0.5-0.6,0.9-1.3,1.4-1.8
		c2.6-1.7,5.2-1.6,8,0.4c0.2,0.2,0.5,0.4,0.8,0.6c0.7,0.7,1.4,1.4,1.7,2.4c0.3,1.5,0.3,2.9-0.2,4.3c-0.6,1.6-1.6,2.9-3.3,3.3
		c-2.3,0.6-4.7,0.7-7,0C469.7,94.2,468.9,93.7,468.6,92.6z"/>
	<path fill="#080805" d="M478.8,84c-1.1-0.7-2.3-1.3-3.7-1.5c-1.3-0.1-2.5,0.1-3.7,0.7c-0.2,0.1-0.4,0.3-0.7,0.3
		c0.4-0.7,1.1-0.9,1.7-1.2c0.2-0.1,0.4-0.1,0.6-0.2c2.2-0.3,4.2,0.2,5.9,1.7C479,84,479,84.1,478.8,84z"/>
	<path fill="#EFE773" d="M468.2,78c0.2-0.1,0.1-0.2,0.1-0.4c0,0.1,0.1,0.1,0.1,0.2c0,0.3,0,0.6,0,1C468.2,78.6,468.2,78.3,468.2,78z
		"/>
	<path fill="#1A1914" d="M478.8,84c0,0,0.1-0.1,0.1-0.1c0.1,0,0.2,0.1,0.3,0.1c0.1,0.1,0.2,0.3,0.4,0.4c0,0.1,0,0.2-0.1,0.1
		C479.2,84.4,479,84.2,478.8,84z"/>
	<path fill="#E2DB6D" d="M473.1,81.8c0,0,0.1,0,0.1,0c0.2-0.1,0.4-0.1,0.6-0.2c0.1,0,0.1,0,0.2,0.1C473.8,82.1,473.5,82,473.1,81.8z
		"/>
	<path fill="#F8E778" d="M474.1,81.7c0,0-0.1,0-0.1,0c0,0-0.1,0-0.1-0.1c0.1-0.2,0.3-0.2,0.5-0.3c0,0,0,0.1,0,0.1c0,0,0,0,0,0
		C474.2,81.5,474.1,81.6,474.1,81.7z"/>
	<path fill="#010100" d="M479.5,84.5c0,0,0.1-0.1,0.1-0.1c1.1,0.8,1.9,1.7,2.6,2.9c0.2,0.4,0.4,0.5,0.8,0.3c1.2,0,2.4,0.3,3.7,0.5
		c-0.4,0.3-0.7,0.4-1,0.6c-0.1,0.1-0.2,0.2-0.3,0.2c-0.9,0.6-1.8,1.1-2.7,1.7c0.2,0.2,0.4,0.3,0.5,0.3c0.3,0.2,0.7,0.4,1,0.6
		c-0.4,0.2-0.9,0.3-1.1,0.7c-0.2,0.2-0.4,0.4-0.6,0.7c-0.1-0.1-0.2-0.2-0.2-0.4c-0.1-1.7-0.6-3.3-1.2-4.9c-0.1-0.3-0.1-0.5-0.2-0.8
		C480.7,85.9,480.2,85.2,479.5,84.5z"/>
	<path fill="#E6E6D5" d="M481.1,86.7c0.8,1.4,1.1,2.9,1.4,4.4c0.1,0.5,0.1,1.1,0.2,1.7c0,0.1,0,0.3,0,0.4c0.2,0.4,0,0.8-0.2,1.1
		c-0.7,1.3-1.9,2.1-3.3,2.5c-1.8,0.6-3.7,0.6-5.6,0.2c-0.3-0.1-0.7-0.2-0.9-0.4c-1.2-0.9-2.4-1.8-3.5-2.7c-0.2-0.4-0.5-0.8-0.5-1.3
		c0.9,1.6,2.4,1.8,4,2.1c1.3,0.2,2.6,0,3.9-0.1c2.6-0.4,3.9-1.6,4.5-4.1c0.3-1,0.3-2.1,0-3.1C481.1,87.1,481.1,86.9,481.1,86.7z"/>
	<path fill="#BC954A" d="M472.6,96.7c2.5,0.8,4.9,0.8,7.3-0.3c1.4-0.6,2.4-1.6,2.7-3.1c0.6,0.6,1.2,1.2,2,1.6c0,0.2-0.2,0.3-0.2,0.5
		c-0.1,0.2-0.2,0.3-0.4,0.4c-0.2,0.1-0.4,0.2-0.5,0.4c0,0-0.1,0.1-0.1,0.1c-0.1,0.1-0.2,0.2-0.3,0.3c-0.1,0.1-0.3,0.2-0.4,0.3
		c-0.1,0.1-0.2,0.1-0.3,0.2c-0.4,0.1-0.6,0.4-1,0.5c-0.2,0.1-0.3,0.1-0.4,0.2c-0.3,0.2-0.6,0.4-0.9,0.5c-0.3,0.1-0.7,0.3-1,0.3
		c-0.3,0-0.5,0-0.8,0.2c-0.1,0-0.2,0.1-0.3,0.1c-0.2,0.1-0.3,0.1-0.5,0.1c-0.2-0.1-0.3,0-0.5,0c-0.2,0.1-0.5,0-0.7,0.1
		c-0.1,0-0.3,0-0.4,0c-0.3-0.1-0.7,0-1,0c-0.2,0-0.3,0-0.5,0c-0.4-0.1-0.8-0.1-1.2-0.2c-0.4-0.1-0.8-0.2-1.2-0.4
		c-0.2-0.1-0.5-0.2-0.7-0.3c-0.6-0.2-1.1-0.5-1.7-0.7c-0.2-0.1-0.4-0.2-0.5-0.5c0.1-0.2,0.2-0.2,0.3-0.1c0.3-0.2,0.6-0.1,0.9-0.1
		c0.5,0.2,1.1,0.2,1.7,0.1c0.2,0,0.5,0,0.7,0C472.7,96.9,472.7,96.8,472.6,96.7z"/>
	<path fill="#9B6131" d="M469,97c0.7,0.5,1.4,0.8,2.2,1.1c0.1,0.3,0.5,0.1,0.5,0.5c-0.5,0.7-1.3,0.9-2.1,1c-1.7,0.3-3.3,0.1-4.6-1.2
		c-0.1-0.1-0.2-0.3-0.2-0.4c0-0.2,0-0.4-0.1-0.7c0-0.1,0-0.1,0-0.2c0-0.1,0.1-0.1,0.1-0.1c0.3-0.2,0.5-0.4,0.9-0.1
		c0.5-0.3,0.9-0.1,1.4-0.1c0.2,0.2,0.4,0.1,0.7,0.1c0.2,0,0.4,0,0.5,0C468.6,96.8,468.8,96.9,469,97z"/>
	<path fill="#696637" d="M464.9,97c0.1-0.4-0.4-0.2-0.4-0.5c0.4,0.1,0.9-0.2,1.3,0.3C465.4,96.6,465.2,96.8,464.9,97z"/>
	<path d="M471.7,90c0.2,1,0.1,1.9-0.3,2.8c-0.2,0.5-0.6,1-1.2,1c-0.6,0-0.9-0.5-1.1-1c-0.5-1.2-0.5-2.4,0-3.6
		c0.1-0.3,0.4-0.6,0.7-0.8c0.6-0.3,1-0.1,1.1,0.6c0,0.4,0,0.7,0.2,1.1C471.2,90.4,471.4,90.5,471.7,90z"/>
	<path fill="#9B6131" d="M477.9,98.7c0.1,0,0.2,0,0.3,0c0.2-0.2,0.5-0.1,0.8-0.3c0.3-0.1,0.7-0.3,1-0.4c0.3,0.2,0.6,0.1,0.9,0.1
		c1.1,0.1,2.2,0.4,3.2,0.9c0.1,0,0.1,0.1,0.1,0.2c0.1,0.3,0.2,0.6,0.2,0.9c0,0.3,0,0.5,0,0.8c0,0.5-0.2,1.1-0.5,1.5
		c0,0.1,0,0.1-0.1,0.2c-0.2,0.2-0.3,0.3-0.5,0.4c-0.9,0.4-1.8,0.6-2.6-0.1c-0.3-0.2-0.4,0-0.6,0.2c-0.4,0.4-0.9,0.8-1.6,0.8
		c-0.1,0-0.2,0-0.4,0c-0.2-0.1-0.3-0.1-0.5-0.1c-0.2-0.1-0.4-0.3-0.6-0.3c-0.1,0-0.2-0.1-0.3-0.2c0,0-0.1-0.1-0.1-0.1
		c-0.1-0.2-0.2-0.4-0.4-0.5c-0.1-0.1-0.1-0.1-0.2-0.2c-0.1-0.1-0.1-0.2-0.2-0.3c-0.1-0.2-0.3-0.5-0.3-0.8c0.1-1.2,1-1.8,1.9-2.4
		C477.6,99,477.9,98.9,477.9,98.7z"/>
	<path fill="#6A4121" d="M465.1,98.2c1.8,1.8,4.9,1.5,6.4,0.5c0.1-0.1,0.1-0.2,0.2-0.2c0-0.1,0.1-0.1,0.1-0.1
		c0.4,0.1,0.8,0.2,1.2,0.4c0.2,0.1,0.5,0,0.7,0.1c0.1,0.5-0.2,0.6-0.5,0.8c-0.7,0.2-1.3,0.5-2,0.7c-0.2,0-0.3,0-0.5,0.1
		c-0.7,0.1-1.5,0.2-2.2,0c-0.3,0-0.5,0-0.8-0.1c-0.1,0-0.3-0.1-0.4-0.2c-0.2-0.1-0.3-0.2-0.5-0.2c-0.1,0-0.1,0-0.2,0
		c-0.1,0-0.3-0.1-0.4-0.1c-0.1-0.1-0.3-0.2-0.4-0.3c-0.1,0-0.1-0.1-0.2-0.1c-0.1-0.1-0.2-0.2-0.3-0.3c-0.1-0.1-0.2-0.3-0.3-0.4
		c0-0.1,0-0.1,0-0.2C465,98.3,465,98.3,465.1,98.2z"/>
	<path fill="#6A4425" d="M484,99.1c-0.1,0-0.1,0.1-0.2,0.1c-1.1-0.6-2.3-0.7-3.5-0.9c-0.1,0-0.2-0.1-0.3-0.2c0.4,0,0.5-0.4,0.9-0.4
		c0.2,0,0.3-0.1,0.4-0.2c0.4-0.1,0.6-0.6,1.1-0.5c0,0.1,0.1,0.1,0.1,0.1c0,0.1,0.1,0.1,0.1,0.2c0.1,0.1,0.1,0.1,0.2,0.2
		c0.1,0.1,0.1,0.2,0.2,0.2c0.1,0.1,0.2,0.1,0.2,0.2c0,0,0.1,0.1,0.1,0.1c0.1,0.1,0.2,0.2,0.3,0.3c0.1,0.1,0.1,0.1,0.2,0.2
		c0,0,0.1,0.1,0.1,0.1c0,0.1,0.1,0.2,0.1,0.3C484.1,98.9,484.2,99.1,484,99.1z"/>
	<path fill="#664223" d="M477.9,98.7c-0.1,0.5-0.7,0.6-1,0.9c-0.5,0.5-1.1,1-1.2,1.8c-0.3,0-0.3-0.3-0.3-0.5c0-0.2,0-0.4,0-0.6
		c0-0.2,0-0.3,0-0.5c0-0.1,0.1-0.2,0.1-0.4c0-0.1,0.1-0.3,0.2-0.4c0,0,0.1-0.1,0.1-0.1c0.1,0,0.2-0.1,0.3-0.1c0.3,0.1,0.6,0,0.8,0.1
		c0.2,0,0.3-0.1,0.5-0.1C477.6,98.9,477.8,98.8,477.9,98.7z"/>
	<path fill="#373737" d="M475.9,99.1c0,0.1-0.1,0.3-0.1,0.4c-0.8,0.6-1.7,0.4-2.5,0.2c-0.1,0-0.1-0.1-0.1-0.2
		c0.2-0.2,0.5-0.3,0.5-0.6c0.2-0.1,0.4,0.2,0.6,0c0.2,0,0.4,0,0.5,0C475.1,99.1,475.6,98.8,475.9,99.1z"/>
	<path fill="#352E20" d="M475.9,99.1c-0.3-0.1-0.8,0.2-1-0.2c0.4,0,0.7-0.1,1,0.1C475.9,99,475.9,99.1,475.9,99.1z"/>
	<path fill="#D5D5D5" d="M493,105.6c0,0,0-0.1,0-0.1c0,0,0.1,0,0.1,0c0.2,0,0.3,0,0.5,0C493.5,105.7,493.3,105.6,493,105.6z"/>
	<path fill="#C07F39" d="M482.1,99.1c0.9,0,1.5,0.3,1.5,0.9c0,0.5-0.7,0.9-1.5,0.9c-0.3,0-0.6,0-0.8-0.1c-0.4-0.1-0.8-0.4-0.8-0.8
		c0-0.5,0.4-0.7,0.8-0.9C481.6,99.1,481.9,99.1,482.1,99.1z"/>
	<path fill="#C48539" d="M478.5,101.3c-0.5,0-0.9-0.1-1.3-0.4c-0.4-0.4-0.4-0.8,0.1-1.1c0.6-0.4,1.7-0.4,2.3,0
		c0.4,0.3,0.5,0.9,0,1.2C479.3,101.2,478.9,101.4,478.5,101.3z"/>
	<path fill="#6B4525" d="M478.5,103.8c0.7,0,1.2-0.5,1.7-1c0.2-0.3,0.4-0.3,0.6,0c0.6,0.6,1.3,0.5,2,0.3c0.2-0.1,0.4-0.1,0.5-0.2
		c0.1,0.2-0.1,0.3-0.2,0.4c-0.1,0.1-0.3,0.2-0.4,0.3c-0.2,0-0.3,0.1-0.5,0.2c-0.2,0.1-0.4,0.1-0.6,0.2c-0.2,0.1-0.4,0.1-0.7,0.1
		c-0.1,0-0.2,0-0.3,0c-0.5,0-1,0-1.4,0c-0.1,0-0.3,0-0.4,0C478.6,104.1,478.4,104,478.5,103.8z"/>
	<path fill="#1A1A1A" d="M475.6,100.9c-0.2-0.2-0.2-0.4,0-0.6C475.6,100.5,475.6,100.7,475.6,100.9z"/>
</g>
</svg>
